<?xml version="1.0" encoding="UTF-8"?>
<svg version="1.1" xmlns="http://www.w3.org/2000/svg" width="197" height="107">
<path d="M0 0 C5.69735348 1.33641625 10.21276183 5.56279845 14.40234375 9.45703125 C17.07055107 11.828736 17.07055107 11.828736 20.46484375 11.58203125 C23.32109375 10.79453125 23.32109375 10.79453125 24.46484375 8.51953125 C24.71234375 7.85953125 24.95984375 7.19953125 25.21484375 6.51953125 C28.01354402 5.12018112 30.11983167 5.2668772 33.21484375 5.51953125 C35.08984375 6.89453125 35.08984375 6.89453125 36.21484375 8.51953125 C36.21484375 9.17953125 36.21484375 9.83953125 36.21484375 10.51953125 C37.20484375 10.84953125 38.19484375 11.17953125 39.21484375 11.51953125 C40.64453125 13.41015625 40.64453125 13.41015625 42.08984375 15.76953125 C43.96363868 18.73012724 45.52701114 20.81812615 48.08984375 23.26953125 C50.21484375 25.51953125 50.21484375 25.51953125 50.52734375 28.33203125 C50.42421875 29.05390625 50.32109375 29.77578125 50.21484375 30.51953125 C47.46484375 30.83203125 47.46484375 30.83203125 44.21484375 30.51953125 C42.02734375 28.08203125 42.02734375 28.08203125 40.21484375 25.51953125 C38.72984375 25.02453125 38.72984375 25.02453125 37.21484375 24.51953125 C36.88484375 25.83953125 36.55484375 27.15953125 36.21484375 28.51953125 C34.59020533 28.57348603 32.96505834 28.6123032 31.33984375 28.64453125 C29.98246094 28.67933594 29.98246094 28.67933594 28.59765625 28.71484375 C26.21484375 28.51953125 26.21484375 28.51953125 24.21484375 26.51953125 C23.24546875 26.25140625 22.27609375 25.98328125 21.27734375 25.70703125 C17.59292685 24.2783798 16.97316297 22.94825372 15.21484375 19.51953125 C14.55484375 19.18953125 13.89484375 18.85953125 13.21484375 18.51953125 C13.21484375 19.17953125 13.21484375 19.83953125 13.21484375 20.51953125 C7.46484375 19.76953125 7.46484375 19.76953125 5.21484375 17.51953125 C3.89484375 20.15953125 2.57484375 22.79953125 1.21484375 25.51953125 C-0.10515625 25.51953125 -1.42515625 25.51953125 -2.78515625 25.51953125 C-3.44515625 23.53953125 -4.10515625 21.55953125 -4.78515625 19.51953125 C-5.44515625 19.84953125 -6.10515625 20.17953125 -6.78515625 20.51953125 C-6.57890625 21.13828125 -6.37265625 21.75703125 -6.16015625 22.39453125 C-6.03640625 23.09578125 -5.91265625 23.79703125 -5.78515625 24.51953125 C-8.80607298 27.54044798 -12.02439545 26.90756909 -16.15625 27.078125 C-19.17703717 27.58532998 -19.7802606 28.33340209 -21.78515625 30.51953125 C-25.47265625 31.20703125 -25.47265625 31.20703125 -28.78515625 31.51953125 C-29.54296875 29.33203125 -29.54296875 29.33203125 -29.78515625 26.51953125 C-28.08984375 24.01953125 -28.08984375 24.01953125 -25.66015625 21.51953125 C-24.40912109 20.21048828 -24.40912109 20.21048828 -23.1328125 18.875 C-20.68635837 16.42040459 -18.23568388 13.97005888 -15.78515625 11.51953125 C-14.7558678 10.33935235 -13.73553609 9.15132241 -12.72265625 7.95703125 C-12.21347656 7.36664063 -11.70429687 6.77625 -11.1796875 6.16796875 C-10.05308152 4.83623844 -8.97370342 3.46464257 -7.91015625 2.08203125 C-5.31077503 0.17072153 -3.20744923 -0.1612684 0 0 Z " fill="#96B562" transform="translate(87.78515625,67.48046875)"/>
<path d="M0 0 C2.13671875 -0.3359375 2.13671875 -0.3359375 5 0 C7.16004945 1.7431978 8.93587957 3.37059901 10.8125 5.375 C11.56563477 6.13683594 11.56563477 6.13683594 12.33398438 6.9140625 C16 10.70477253 16 10.70477253 16 13 C16.61875 13.28875 17.2375 13.5775 17.875 13.875 C20 15 20 15 22 17 C21.625 19.125 21.625 19.125 21 21 C19.3125 21.8125 19.3125 21.8125 17 22 C15.13758187 20.39625105 13.62915686 18.82208333 12 17 C10.67342444 15.65994298 9.33961365 14.3270233 8 13 C7.32066406 12.31421875 6.64132813 11.6284375 5.94140625 10.921875 C4.76709188 9.75937466 3.57165843 8.61701225 2.33984375 7.515625 C0.9375 6.25 0.9375 6.25 -1 4 C-0.8125 1.6875 -0.8125 1.6875 0 0 Z " fill="#9ABA6C" transform="translate(39,37)"/>
<path d="M0 0 C0.99 0.33 1.98 0.66 3 1 C2.34686981 6.88490497 1.34306318 12.5958041 0.0625 18.375 C-0.10701172 19.18066406 -0.27652344 19.98632812 -0.45117188 20.81640625 C-1.76045583 26.76045583 -1.76045583 26.76045583 -4 29 C-6.625 28.625 -6.625 28.625 -9 28 C-9.55028805 21.93664091 -7.56179179 16.83263322 -5.625 11.1875 C-5.30789062 10.22134766 -4.99078125 9.25519531 -4.6640625 8.25976562 C-2.25889555 1.12944778 -2.25889555 1.12944778 0 0 Z " fill="#8FAF5E" transform="translate(118,15)"/>
<path d="M0 0 C2.530091 0.9721082 3.74980409 1.51006341 5.00488281 3.96777344 C5.23530273 4.75700195 5.46572266 5.54623047 5.703125 6.359375 C5.9609375 7.22820313 6.21875 8.09703125 6.484375 8.9921875 C6.73703125 9.90226562 6.9896875 10.81234375 7.25 11.75 C7.518125 12.64460938 7.78625 13.53921875 8.0625 14.4609375 C9.39759089 19.07926211 10.35381882 23.14303258 10 28 C8.35 28.33 6.7 28.66 5 29 C-1.76547577 10.09798373 -1.76547577 10.09798373 -2 2 C-1.34 1.34 -0.68 0.68 0 0 Z " fill="#95B364" transform="translate(76,15)"/>
<path d="M0 0 C0 1.32 0 2.64 0 4 C-2.18039445 6.18039445 -2.97199189 6.40666092 -5.88671875 7.03515625 C-7.0478418 7.28942383 -7.0478418 7.28942383 -8.23242188 7.54882812 C-9.44768555 7.8030957 -9.44768555 7.8030957 -10.6875 8.0625 C-11.47833984 8.23587891 -12.26917969 8.40925781 -13.08398438 8.58789062 C-17.70724433 9.58431577 -22.31017394 10.39101322 -27 11 C-27.33 9.68 -27.66 8.36 -28 7 C-20.13083506 1.74887464 -9.41654535 -0.76869758 0 0 Z " fill="#99B869" transform="translate(177,73)"/>
<path d="M0 0 C0.7434668 0.23154785 1.48693359 0.4630957 2.25292969 0.70166016 C1.76346025 4.90533882 0.79528028 6.57768148 -2.49707031 9.20166016 C-6.36591769 12.38532705 -10.04256388 15.64204821 -13.24707031 19.51416016 C-15.39172741 21.21201369 -17.09701137 20.9165298 -19.74707031 20.70166016 C-18.95567936 14.48262371 -15.291274 11.58306276 -10.99707031 7.32666016 C-10.28035156 6.57771484 -9.56363281 5.82876953 -8.82519531 5.05712891 C-7.77332031 4.00332031 -7.77332031 4.00332031 -6.70019531 2.92822266 C-6.06243164 2.28449707 -5.42466797 1.64077148 -4.76757812 0.97753906 C-2.74707031 -0.29833984 -2.74707031 -0.29833984 0 0 Z " fill="#A4BA64" transform="translate(154.7470703125,37.29833984375)"/>
<path d="M0 0 C4.60704135 0.69070017 9.06955247 1.7252604 13.5625 2.9375 C14.20896484 3.10701172 14.85542969 3.27652344 15.52148438 3.45117188 C19.12530309 4.41536752 22.57009334 5.53192095 26 7 C26 8.65 26 10.3 26 12 C16.70637484 11.25650999 7.58281921 8.6044608 -1 5 C-0.67 3.35 -0.34 1.7 0 0 Z " fill="#9DBE6E" transform="translate(19,72)"/>
<path d="M0 0 C1.32 0.66 2.64 1.32 4 2 C4.05410687 3.77049689 4.09284119 5.54146849 4.125 7.3125 C4.14820312 8.29863281 4.17140625 9.28476562 4.1953125 10.30078125 C4 13 4 13 2 16 C1.01 16 0.02 16 -1 16 C-2.69213943 13.04044139 -3.29521319 10.84300083 -3.3125 7.4375 C-3.32925781 6.67308594 -3.34601563 5.90867187 -3.36328125 5.12109375 C-2.91796488 2.52102077 -1.99996498 1.65168612 0 0 Z " fill="#92B372" transform="translate(97,21)"/>
<path d="M0 0 C4.57989423 -0.46733615 7.24854513 -0.17261016 10.9375 2.5 C11.948125 3.325 12.95875 4.15 14 5 C13.6875 6.9375 13.6875 6.9375 13 9 C10 10 10 10 7.7734375 9.1796875 C6.98195313 8.74914062 6.19046875 8.31859375 5.375 7.875 C4.57835937 7.45992188 3.78171875 7.04484375 2.9609375 6.6171875 C0.47904102 4.57036451 0.30616407 3.13554235 0 0 Z " fill="#9BBA71" transform="translate(33,58)"/>
<path d="M0 0 C1.32 0.33 2.64 0.66 4 1 C3.58221009 6.7097955 1.42453429 9.60957142 -2 14 C-3.32 13.67 -4.64 13.34 -6 13 C-6.46557346 9.81858133 -6.50963377 7.74656877 -4.6640625 5.04296875 C-3.15741976 3.3064392 -1.62063536 1.630282 0 0 Z " fill="#94B86B" transform="translate(132,31)"/>
<path d="M0 0 C3.29123697 0.23508836 4.0798772 1.09067142 6.3125 3.625 C8.32997558 7.65995117 8.03534166 9.68607641 7 14 C4.6875 13.875 4.6875 13.875 2 13 C-0.56512645 9.40882298 -1.04443928 7.5510471 -0.6875 3.125 C-0.460625 2.09375 -0.23375 1.0625 0 0 Z " fill="#9CBB76" transform="translate(61,31)"/>
<path d="M0 0 C-0.66 1.65 -1.32 3.3 -2 5 C-2.99 5 -3.98 5 -5 5 C-5.66 6.98 -6.32 8.96 -7 11 C-2.75177626 10.52797514 -0.80010291 8.03344482 2 5 C4.31 5.66 6.62 6.32 9 7 C9 6.34 9 5.68 9 5 C10.32 5 11.64 5 13 5 C13.33 4.34 13.66 3.68 14 3 C14 4.32 14 5.64 14 7 C11.90806125 9.09193875 7.49822957 8.38135525 4.6640625 8.5234375 C1.63291974 9.06566538 1.01408274 9.80333752 -1 12 C-4.6875 12.6875 -4.6875 12.6875 -8 13 C-8.70703125 10.76953125 -8.70703125 10.76953125 -9 8 C-7.63671875 5.76171875 -7.63671875 5.76171875 -5.6875 3.6875 C-5.05199219 2.99011719 -4.41648437 2.29273437 -3.76171875 1.57421875 C-2 0 -2 0 0 0 Z " fill="#84AC66" transform="translate(67,86)"/>
<path d="M0 0 C1.31291016 -0.03867188 1.31291016 -0.03867188 2.65234375 -0.078125 C5.4818869 0.30709643 6.31382925 1.05694757 8.0625 3.25 C7.0725 4.735 7.0725 4.735 6.0625 6.25 C3.0234375 6.54296875 3.0234375 6.54296875 -0.5625 6.4375 C-1.75101563 6.41042969 -2.93953125 6.38335937 -4.1640625 6.35546875 C-5.53691406 6.30326172 -5.53691406 6.30326172 -6.9375 6.25 C-6.9375 4.6 -6.9375 2.95 -6.9375 1.25 C-4.48367866 0.02308933 -2.73765897 0.04824069 0 0 Z " fill="#9DBE78" transform="translate(163.9375,92.75)"/>
<path d="M0 0 C0.6875 2.0625 0.6875 2.0625 1 4 C-0.40552299 5.03612271 -1.82491694 6.05344925 -3.25 7.0625 C-4.03890625 7.63097656 -4.8278125 8.19945313 -5.640625 8.78515625 C-8 10 -8 10 -10.296875 9.68359375 C-10.85890625 9.45800781 -11.4209375 9.23242188 -12 9 C-11.67193728 5.96541983 -11.46210789 4.43023838 -9.1875 2.3125 C-8.465625 1.879375 -7.74375 1.44625 -7 1 C-5.9790625 0.38125 -5.9790625 0.38125 -4.9375 -0.25 C-3 -1 -3 -1 0 0 Z " fill="#96B462" transform="translate(161,58)"/>
<path d="M0 0 C3 1 3 1 5 2 C5 2.99 5 3.98 5 5 C0.55522251 6.11119437 -3.44446622 6.29390541 -8 6 C-10 4.5 -10 4.5 -11 3 C-8.31546194 -1.02680709 -4.35529418 -0.51687343 0 0 Z " fill="#9FC077" transform="translate(34,93)"/>
<path d="M0 0 C0.66 0.33 1.32 0.66 2 1 C-4.78075352 9.29535482 -4.78075352 9.29535482 -9 12 C-11.8125 12.25 -11.8125 12.25 -14 12 C-13.6875 9.625 -13.6875 9.625 -13 7 C-10 5 -10 5 -7.4375 4.5625 C-4.64573325 4.21178049 -4.64573325 4.21178049 -3 1 C-2.01 0.67 -1.02 0.34 0 0 Z " fill="#A1C277" transform="translate(149,46)"/>
<path d="M0 0 C4.70588235 0.70588235 4.70588235 0.70588235 6 2 C6.14115161 4.67058851 6.04247107 7.32432238 6 10 C3.625 10.125 3.625 10.125 1 10 C-1 8 -1 8 -1.1875 4.4375 C-1 1 -1 1 0 0 Z " fill="#73A451" transform="translate(51,14)"/>
<path d="M0 0 C1.8871875 0.0309375 1.8871875 0.0309375 3.8125 0.0625 C3.8125 1.3825 3.8125 2.7025 3.8125 4.0625 C0.98921911 6.88578089 -1.27291907 6.85646942 -5.1875 7.0625 C-7.125 5.625 -7.125 5.625 -8.1875 4.0625 C-7.8575 3.0725 -7.5275 2.0825 -7.1875 1.0625 C-4.43671116 0.14557039 -2.82801087 -0.04636083 0 0 Z " fill="#9DBC6C" transform="translate(173.1875,72.9375)"/>
<path d="M0 0 C3.465 1.485 3.465 1.485 7 3 C7 4.65 7 6.3 7 8 C4.75 8.75 4.75 8.75 2 9 C-0.375 7.3125 -0.375 7.3125 -2 5 C-1.80984746 2.78155374 -1.58477845 1.58477845 0 0 Z " fill="#A3C074" transform="translate(19,47)"/>
<path d="M0 0 C3.69230769 0.69230769 3.69230769 0.69230769 5 2 C5.04092937 4.33297433 5.04241723 6.66705225 5 9 C2.69 9.33 0.38 9.66 -2 10 C-1.85950482 8.52031676 -1.71245174 7.04125484 -1.5625 5.5625 C-1.48128906 4.73878906 -1.40007812 3.91507812 -1.31640625 3.06640625 C-1 1 -1 1 0 0 Z " fill="#98B971" transform="translate(96,2)"/>
<path d="M0 0 C0.36363636 5.45454545 0.36363636 5.45454545 -1.25 7.875 C-3 9 -3 9 -7 9 C-6.88637738 7.5199159 -6.75877092 6.04089926 -6.625 4.5625 C-6.55539063 3.73878906 -6.48578125 2.91507813 -6.4140625 2.06640625 C-6.27742187 1.38449219 -6.14078125 0.70257813 -6 0 C-3.50907189 -1.24546405 -2.58919267 -0.7767578 0 0 Z " fill="#86A15E" transform="translate(145,15)"/>
<path d="M0 0 C2.01822917 0.06510417 4.03645833 0.13020833 6.0546875 0.1953125 C6.7146875 1.5153125 7.3746875 2.8353125 8.0546875 4.1953125 C5.13759826 6.17893319 3.93087846 6.1829316 0.3046875 5.8203125 C-0.7678125 5.6140625 -1.8403125 5.4078125 -2.9453125 5.1953125 C-3.2753125 4.2053125 -3.6053125 3.2153125 -3.9453125 2.1953125 C-1.9453125 0.1953125 -1.9453125 0.1953125 0 0 Z " fill="#A2BF75" transform="translate(183.9453125,92.8046875)"/>
<path d="M0 0 C1 3 1 3 -0.0625 5.1875 C-2 7 -2 7 -5.1875 7.25 C-6.115625 7.1675 -7.04375 7.085 -8 7 C-8.33 5.68 -8.66 4.36 -9 3 C-5.92807025 0.26939578 -4.09590633 -0.34132553 0 0 Z " fill="#97BA79" transform="translate(178,48)"/>
<path d="M0 0 C1.67542976 0.28604898 3.34385343 0.61781233 5 1 C5 3.31 5 5.62 5 8 C3.1875 8.6875 3.1875 8.6875 1 9 C-0.8125 7.875 -0.8125 7.875 -2 6 C-1.57894737 1.57894737 -1.57894737 1.57894737 0 0 Z " fill="#779C68" transform="translate(96,42)"/>
<path d="M0 0 C0.99 0 1.98 0 3 0 C2.25 4.75 2.25 4.75 0 7 C-0.99 7 -1.98 7 -3 7 C-3 7.99 -3 8.98 -3 10 C-3.66 10 -4.32 10 -5 10 C-5.185625 9.071875 -5.185625 9.071875 -5.375 8.125 C-5.87197356 5.80879168 -5.87197356 5.80879168 -8 4 C-7.34 3.34 -6.68 2.68 -6 2 C-3.375 2.375 -3.375 2.375 -1 3 C-0.67 2.01 -0.34 1.02 0 0 Z " fill="#90B25A" transform="translate(89,79)"/>
<path d="M0 0 C1.8125 2 1.8125 2 3 4 C1 6 1 6 -2 6.25 C-5 6 -5 6 -7 4 C-7 3.01 -7 2.02 -7 1 C-4.4254716 -0.2872642 -2.85291355 -0.34791629 0 0 Z " fill="#B0D192" transform="translate(12,93)"/>
<path d="M0 0 C4.1736556 1.60525215 7.26141941 4.53226172 10 8 C10.875 10.875 10.875 10.875 11 13 C10.01 13.33 9.02 13.66 8 14 C8 12.33333333 8 10.66666667 8 9 C7.34 9 6.68 9 6 9 C6 9.66 6 10.32 6 11 C5.34 11 4.68 11 4 11 C3.87625 9.081875 3.87625 9.081875 3.75 7.125 C3.54130069 4.94666582 3.54130069 4.94666582 3 3 C1.07935207 1.4100567 1.07935207 1.4100567 -1 1 C-0.67 0.67 -0.34 0.34 0 0 Z " fill="#92B162" transform="translate(42,37)"/>
<path d="M0 0 C5.75 0.875 5.75 0.875 8 2 C7.67 2.66 7.34 3.32 7 4 C6.34 4 5.68 4 5 4 C5.66 4.33 6.32 4.66 7 5 C7 5.66 7 6.32 7 7 C7.99 7.33 8.98 7.66 10 8 C6.0507432 7.44894091 2.65079826 6.61064629 -1 5 C-0.67 3.35 -0.34 1.7 0 0 Z " fill="#9EC677" transform="translate(19,72)"/>
<path d="M0 0 C2.4375 -0.4375 2.4375 -0.4375 5 0 C6.8125 2 6.8125 2 8 4 C4.79191085 6.1387261 3.72301503 6.47730962 0 6 C-0.66 5.01 -1.32 4.02 -2 3 C-1.34 2.01 -0.68 1.02 0 0 Z " fill="#9AB97A" transform="translate(144,93)"/>
<path d="M0 0 C1.98 0.66 3.96 1.32 6 2 C5.67 3.98 5.34 5.96 5 8 C2.83125748 7.49396008 1.00032373 7.00016187 -1 6 C-1.042721 4.33388095 -1.04063832 2.66617115 -1 1 C-0.67 0.67 -0.34 0.34 0 0 Z " fill="#9FBC7F" transform="translate(52,67)"/>
<path d="M0 0 C1.875 1.375 1.875 1.375 3 3 C3 3.66 3 4.32 3 5 C3.99 5.33 4.98 5.66 6 6 C6 6.66 6 7.32 6 8 C4.68 8 3.36 8 2 8 C1.67 6.35 1.34 4.7 1 3 C-0.3921875 3.3403125 -0.3921875 3.3403125 -1.8125 3.6875 C-5 4 -5 4 -6.875 2.5625 C-7.431875 1.7890625 -7.431875 1.7890625 -8 1 C-5.20129973 -0.39935013 -3.09501208 -0.25265405 0 0 Z " fill="#92B873" transform="translate(121,73)"/>
<path d="M0 0 C1.67542976 0.28604898 3.34385343 0.61781233 5 1 C5 2.98 5 4.96 5 7 C3.125 7.625 3.125 7.625 1 8 C-1 6 -1 6 -1.1875 3.4375 C-1 1 -1 1 0 0 Z " fill="#9BBE7F" transform="translate(120,49)"/>
<path d="M0 0 C6.75 0.75 6.75 0.75 9 3 C8.8125 5.0625 8.8125 5.0625 8 7 C5 8 5 8 2 7 C2.226875 6.401875 2.45375 5.80375 2.6875 5.1875 C2.790625 4.465625 2.89375 3.74375 3 3 C1.64555699 1.22809091 1.64555699 1.22809091 0 0 Z " fill="#95B56D" transform="translate(38,60)"/>
<path d="M0 0 C1.65 0 3.3 0 5 0 C5 0.99 5 1.98 5 3 C5.66 3 6.32 3 7 3 C6.67 5.31 6.34 7.62 6 10 C3 9 3 9 1.3125 6.125 C0 3 0 3 0 0 Z " fill="#8FB063" transform="translate(60,35)"/>
<path d="M0 0 C0.99 1.32 1.98 2.64 3 4 C2.01 4.33 1.02 4.66 0 5 C0 5.99 0 6.98 0 8 C-2.375 7.75 -2.375 7.75 -5 7 C-6.3125 4.9375 -6.3125 4.9375 -7 3 C-4 2 -4 2 -1 3 C-0.67 2.01 -0.34 1.02 0 0 Z " fill="#87B05F" transform="translate(111,85)"/>
<path d="M0 0 C1.2065625 0.0309375 1.2065625 0.0309375 2.4375 0.0625 C3.5625 3.8125 3.5625 3.8125 2.4375 6.0625 C0.4575 6.0625 -1.5225 6.0625 -3.5625 6.0625 C-3.605221 4.39638095 -3.60313832 2.72867115 -3.5625 1.0625 C-2.5625 0.0625 -2.5625 0.0625 0 0 Z " fill="#8DB364" transform="translate(140.5625,67.9375)"/>
<path d="M0 0 C2.625 0.375 2.625 0.375 5 1 C5.5625 2.9375 5.5625 2.9375 6 5 C5 6 5 6 2.4375 6.0625 C1.2309375 6.0315625 1.2309375 6.0315625 0 6 C-0.66 4.68 -1.32 3.36 -2 2 C-1.34 1.34 -0.68 0.68 0 0 Z " fill="#98B874" transform="translate(46,93)"/>
<path d="M0 0 C2.125 0.9375 2.125 0.9375 4 2 C3.67 3.98 3.34 5.96 3 8 C1.68 7.67 0.36 7.34 -1 7 C-1.33 5.02 -1.66 3.04 -2 1 C-1.34 0.67 -0.68 0.34 0 0 Z " fill="#95B56C" transform="translate(72,49)"/>
<path d="M0 0 C0.433125 0.45375 0.86625 0.9075 1.3125 1.375 C3.10798342 3.20024334 3.10798342 3.20024334 6 5 C1.56923077 8.07692308 1.56923077 8.07692308 -1.3125 7.6875 C-1.869375 7.460625 -2.42625 7.23375 -3 7 C-2.25 2.25 -2.25 2.25 0 0 Z " fill="#99BE76" transform="translate(152,60)"/>
<path d="M0 0 C0.99 0.66 1.98 1.32 3 2 C2.34 2.66 1.68 3.32 1 4 C1.66 4 2.32 4 3 4 C3 4.66 3 5.32 3 6 C0.69 6.33 -1.62 6.66 -4 7 C-4.33 5.68 -4.66 4.36 -5 3 C-3.35 2.01 -1.7 1.02 0 0 Z " fill="#87AF67" transform="translate(154,77)"/>
<path d="M0 0 C0 0.66 0 1.32 0 2 C-0.99 2.33 -1.98 2.66 -3 3 C-3 3.66 -3 4.32 -3 5 C-2.34 5.33 -1.68 5.66 -1 6 C-1.99 6.66 -2.98 7.32 -4 8 C-4.66 7.67 -5.32 7.34 -6 7 C-6.33 7.99 -6.66 8.98 -7 10 C-7.66 9.67 -8.32 9.34 -9 9 C-7.39537511 4.18612534 -5.52128094 0 0 0 Z " fill="#88A965" transform="translate(135,31)"/>
<path d="M0 0 C0.99 0.66 1.98 1.32 3 2 C2.67 3.32 2.34 4.64 2 6 C-1.75 7.125 -1.75 7.125 -4 6 C-2.25 1.125 -2.25 1.125 0 0 Z " fill="#9CBE7C" transform="translate(58,52)"/>
<path d="M0 0 C0.99 0.33 1.98 0.66 3 1 C3 1.99 3 2.98 3 4 C3.66 4 4.32 4 5 4 C5.66 3.34 6.32 2.68 7 2 C7 3.65 7 5.3 7 7 C5.35 7.33 3.7 7.66 2 8 C0.74335022 5.09399739 0 3.20395416 0 0 Z " fill="#A1C27C" transform="translate(79,36)"/>
<path d="M0 0 C2.64 0 5.28 0 8 0 C8 1.32 8 2.64 8 4 C7.34 4.66 6.68 5.32 6 6 C5.01 5.67 4.02 5.34 3 5 C3 4.01 3 3.02 3 2 C2.01 1.34 1.02 0.68 0 0 Z " fill="#9DC988" transform="translate(169,73)"/>
<path d="M0 0 C1.24546405 2.49092811 0.7767578 3.41080733 0 6 C1.65 5.67 3.3 5.34 5 5 C5.33 6.32 5.66 7.64 6 9 C3.125 8.6875 3.125 8.6875 0 8 C-2 5 -2 5 -1.6875 2.875 C-1 1 -1 1 0 0 Z " fill="#AAD087" transform="translate(19,47)"/>
<path d="M0 0 C1.32 0.66 2.64 1.32 4 2 C4 2.99 4 3.98 4 5 C2.35 5 0.7 5 -1 5 C-1.33 5.99 -1.66 6.98 -2 8 C-2.6875 5.6875 -2.6875 5.6875 -3 3 C-1.5625 1.1875 -1.5625 1.1875 0 0 Z " fill="#9AB779" transform="translate(97,21)"/>
<path d="M0 0 C1.65 0 3.3 0 5 0 C5 1.65 5 3.3 5 5 C2.625 5.1875 2.625 5.1875 0 5 C-0.66 4.01 -1.32 3.02 -2 2 C-1.34 2 -0.68 2 0 2 C0 1.34 0 0.68 0 0 Z " fill="#96B76A" transform="translate(40,79)"/>
<path d="M0 0 C0.99 0 1.98 0 3 0 C3.99 3.3 4.98 6.6 6 10 C2.25018012 8.75006004 1.13381449 7.2769294 -1 4 C-0.75 1.6875 -0.75 1.6875 0 0 Z " fill="#9EB65C" transform="translate(79,31)"/>
<path d="M0 0 C0 0.66 0 1.32 0 2 C-0.99 2.495 -0.99 2.495 -2 3 C-2.91031272 5.34386809 -2.91031272 5.34386809 -3.625 8.0625 C-3.88539062 8.98160156 -4.14578125 9.90070312 -4.4140625 10.84765625 C-4.60742188 11.55792969 -4.80078125 12.26820312 -5 13 C-5.66 12.67 -6.32 12.34 -7 12 C-6.55149342 10.18504338 -6.09090429 8.37306866 -5.625 6.5625 C-5.36976562 5.55316406 -5.11453125 4.54382813 -4.8515625 3.50390625 C-3.81341212 0.45136315 -3.19247698 0 0 0 Z " fill="#8EAA64" transform="translate(120,15)"/>
<path d="M0 0 C0.66 0.33 1.32 0.66 2 1 C2.36521739 6.47826087 2.36521739 6.47826087 0.6875 8.875 C-1 10 -1 10 -4 10 C-4 8.68 -4 7.36 -4 6 C-3.34 6 -2.68 6 -2 6 C-2 6.66 -2 7.32 -2 8 C-1.34 8 -0.68 8 0 8 C-0.185625 7.05125 -0.37125 6.1025 -0.5625 5.125 C-1 2 -1 2 0 0 Z " fill="#8ABD6C" transform="translate(143,14)"/>
<path d="M0 0 C1.875 0.1875 1.875 0.1875 4 1 C5.3125 3.4375 5.3125 3.4375 6 6 C5.67 6.66 5.34 7.32 5 8 C5.99 8.99 6.98 9.98 8 11 C7.01 11.33 6.02 11.66 5 12 C3.00747497 9.01121246 2.6675391 7.42113788 2 4 C1.00916033 1.76591887 1.00916033 1.76591887 0 0 Z " fill="#8EAE5A" transform="translate(91,75)"/>
<path d="M0 0 C1.65 0.33 3.3 0.66 5 1 C4.67 2.65 4.34 4.3 4 6 C3.67 4.68 3.34 3.36 3 2 C2.01 2 1.02 2 0 2 C-0.33 2.99 -0.66 3.98 -1 5 C-3.5625 6.1875 -3.5625 6.1875 -6 7 C-4.02 4.69 -2.04 2.38 0 0 Z " fill="#A1BD79" transform="translate(152,37)"/>
<path d="M0 0 C6.22448068 -0.42927453 9.15878559 0.00599812 14 4 C14 4.33 14 4.66 14 5 C12.35 5 10.7 5 9 5 C8.34 3.68 7.68 2.36 7 1 C4.69 1 2.38 1 0 1 C0 0.67 0 0.34 0 0 Z " fill="#8EB673" transform="translate(82,68)"/>
<path d="M0 0 C1.65 0.33 3.3 0.66 5 1 C4.67 2.32 4.34 3.64 4 5 C2.35 5 0.7 5 -1 5 C-0.67 3.35 -0.34 1.7 0 0 Z " fill="#93B66E" transform="translate(136,53)"/>
<path d="M0 0 C1.65 1.65 3.3 3.3 5 5 C5.33 3.35 5.66 1.7 6 0 C6.66 0.33 7.32 0.66 8 1 C7.3125 3.4375 7.3125 3.4375 6 6 C3.4375 6.875 3.4375 6.875 1 7 C0 6 0 6 -0.0625 2.9375 C-0.041875 1.968125 -0.02125 0.99875 0 0 Z " fill="#99BA7F" transform="translate(109,37)"/>
<path d="M0 0 C0.103125 0.639375 0.20625 1.27875 0.3125 1.9375 C0.539375 2.618125 0.76625 3.29875 1 4 C1.99 4.33 2.98 4.66 4 5 C4 5.66 4 6.32 4 7 C4.99 7 5.98 7 7 7 C7 7.66 7 8.32 7 9 C4.625 9.125 4.625 9.125 2 9 C0 7 0 7 -0.125 3.375 C-0.08375 2.26125 -0.0425 1.1475 0 0 Z " fill="#68984F" transform="translate(50,15)"/>
<path d="M0 0 C2.01822917 0.06510417 4.03645833 0.13020833 6.0546875 0.1953125 C6.7146875 1.5153125 7.3746875 2.8353125 8.0546875 4.1953125 C7.0646875 4.6903125 7.0646875 4.6903125 6.0546875 5.1953125 C5.7246875 4.2053125 5.3946875 3.2153125 5.0546875 2.1953125 C2.0846875 1.7003125 2.0846875 1.7003125 -0.9453125 1.1953125 C-0.6153125 2.1853125 -0.2853125 3.1753125 0.0546875 4.1953125 C-0.9353125 4.5253125 -1.9253125 4.8553125 -2.9453125 5.1953125 C-3.2753125 4.2053125 -3.6053125 3.2153125 -3.9453125 2.1953125 C-1.9453125 0.1953125 -1.9453125 0.1953125 0 0 Z " fill="#A4CB8D" transform="translate(183.9453125,92.8046875)"/>
<path d="M0 0 C1.32 0.66 2.64 1.32 4 2 C2.35 3.65 0.7 5.3 -1 7 C-1.66 6.67 -2.32 6.34 -3 6 C-1.125 1.125 -1.125 1.125 0 0 Z M4 1 C6 2 6 2 6 2 Z " fill="#8BAF5F" transform="translate(113,75)"/>
<path d="M0 0 C1.32 0 2.64 0 4 0 C4 1.98 4 3.96 4 6 C2.68 6 1.36 6 0 6 C0 5.34 0 4.68 0 4 C-0.66 3.67 -1.32 3.34 -2 3 C-1.34 3 -0.68 3 0 3 C0 2.01 0 1.02 0 0 Z " fill="#91AD5A" transform="translate(96,26)"/>
<path d="M0 0 C1.98 0.495 1.98 0.495 4 1 C4 3.31 4 5.62 4 8 C2.35 6.68 0.7 5.36 -1 4 C-0.67 2.68 -0.34 1.36 0 0 Z " fill="#8EAF6E" transform="translate(96,2)"/>
<path d="M0 0 C-0.66 1.32 -1.32 2.64 -2 4 C-1.01 4.33 -0.02 4.66 1 5 C-2.3 5 -5.6 5 -9 5 C-7.68 4.01 -6.36 3.02 -5 2 C-5.33 1.34 -5.66 0.68 -6 0 C-2.25 -1.125 -2.25 -1.125 0 0 Z " fill="#9CBE77" transform="translate(161,77)"/>
<path d="M0 0 C-0.5859375 6.15234375 -0.5859375 6.15234375 -1 8 C-1.99 8.495 -1.99 8.495 -3 9 C-3.33 6.69 -3.66 4.38 -4 2 C-1 0 -1 0 0 0 Z " fill="#9EB875" transform="translate(121,16)"/>
<path d="M0 0 C0.66 0.33 1.32 0.66 2 1 C1.34 2.32 0.68 3.64 0 5 C-2.97 5 -5.94 5 -9 5 C-9 4.67 -9 4.34 -9 4 C-7.35 4 -5.7 4 -4 4 C-4 3.34 -4 2.68 -4 2 C-2.68 2 -1.36 2 0 2 C0 1.34 0 0.68 0 0 Z " fill="#89B668" transform="translate(80,89)"/>
<path d="M0 0 C1.98 0 3.96 0 6 0 C5.34 1.65 4.68 3.3 4 5 C2.68 4.34 1.36 3.68 0 3 C0 2.01 0 1.02 0 0 Z " fill="#A5C575" transform="translate(5,94)"/>
<path d="M0 0 C1.65 0 3.3 0 5 0 C5 1.65 5 3.3 5 5 C4.01 5.33 3.02 5.66 2 6 C1.34 5.34 0.68 4.68 0 4 C0 2.68 0 1.36 0 0 Z " fill="#88A96F" transform="translate(94,44)"/>
<path d="M0 0 C0.66 0 1.32 0 2 0 C3.23076923 6.4 3.23076923 6.4 2.0625 9.4375 C1.711875 9.953125 1.36125 10.46875 1 11 C-0.17571451 7.32589215 -0.07366746 3.83070817 0 0 Z " fill="#92B86A" transform="translate(116,22)"/>
<path d="M0 0 C0.99 0.495 0.99 0.495 2 1 C2 1.66 2 2.32 2 3 C4.31 3 6.62 3 9 3 C7 5 7 5 3.375 5.125 C2.26125 5.08375 1.1475 5.0425 0 5 C0 3.35 0 1.7 0 0 Z " fill="#89AB6F" transform="translate(157,94)"/>
<path d="M0 0 C0.99 0 1.98 0 3 0 C3 0.99 3 1.98 3 3 C2.34 3 1.68 3 1 3 C1 3.99 1 4.98 1 6 C-0.32 5.67 -1.64 5.34 -3 5 C-1.6875 2.5 -1.6875 2.5 0 0 Z " fill="#92AF5A" transform="translate(80,69)"/>
<path d="M0 0 C0.99 0 1.98 0 3 0 C2.34 1.98 1.68 3.96 1 6 C0.34 6 -0.32 6 -1 6 C-1.625 4.125 -1.625 4.125 -2 2 C-1.34 1.34 -0.68 0.68 0 0 Z " fill="#8AAD56" transform="translate(122,87)"/>
<path d="M0 0 C0.99 0.33 1.98 0.66 3 1 C2.67 2.32 2.34 3.64 2 5 C0.68 5 -0.64 5 -2 5 C-1.125 1.125 -1.125 1.125 0 0 Z " fill="#9BBE76" transform="translate(158,57)"/>
<path d="M0 0 C0 2 0 2 -1.375 3.625 C-3 5 -3 5 -5 5 C-5 5.99 -5 6.98 -5 8 C-5.99 8 -6.98 8 -8 8 C-6.48291727 4.46014029 -4.24676932 0 0 0 Z " fill="#94B467" transform="translate(147,44)"/>
<path d="M0 0 C2.86724686 0.57344937 3.8614515 0.8614515 6 3 C5.34 3.66 4.68 4.32 4 5 C1.875 4.625 1.875 4.625 0 4 C0 2.68 0 1.36 0 0 Z " fill="#A1C57A" transform="translate(126,40)"/>
<path d="M0 0 C0.99 0.33 1.98 0.66 3 1 C3 1.99 3 2.98 3 4 C2.34 4 1.68 4 1 4 C0.67 5.65 0.34 7.3 0 9 C-0.99 8.67 -1.98 8.34 -3 8 C-2.01 5.36 -1.02 2.72 0 0 Z " fill="#9CB669" transform="translate(114,33)"/>
<path d="M0 0 C0.99 0 1.98 0 3 0 C3.33 2.64 3.66 5.28 4 8 C3.34 8 2.68 8 2 8 C1.814375 7.071875 1.814375 7.071875 1.625 6.125 C1.12802644 3.80879168 1.12802644 3.80879168 -1 2 C-0.67 1.34 -0.34 0.68 0 0 Z " fill="#8AAF50" transform="translate(82,81)"/>
<path d="M0 0 C6.75 -0.125 6.75 -0.125 9 1 C9 1.66 9 2.32 9 3 C6.525 2.01 6.525 2.01 4 1 C3.67 1.66 3.34 2.32 3 3 C2.01 3 1.02 3 0 3 C0 2.01 0 1.02 0 0 Z " fill="#A3C28E" transform="translate(33,58)"/>
<path d="M0 0 C0.66 0 1.32 0 2 0 C2 0.66 2 1.32 2 2 C1.34 2 0.68 2 0 2 C-0.33 3.32 -0.66 4.64 -1 6 C-2.32 6.33 -3.64 6.66 -5 7 C-4.21654285 5.82780457 -3.42297164 4.66236332 -2.625 3.5 C-2.18414062 2.8503125 -1.74328125 2.200625 -1.2890625 1.53125 C-0.65097656 0.77328125 -0.65097656 0.77328125 0 0 Z " fill="#89B069" transform="translate(74,77)"/>
<path d="M0 0 C-3.6441774 2.4294516 -5.71241272 2.16179575 -10 2 C-6.80505194 -1.19494806 -4.22040044 -1.35655728 0 0 Z " fill="#90B260" transform="translate(169,79)"/>
<path d="M0 0 C1.9375 0.75 1.9375 0.75 4 2 C4.75 4.125 4.75 4.125 5 6 C4.34 6 3.68 6 3 6 C3 5.01 3 4.02 3 3 C2.01 3.33 1.02 3.66 0 4 C-0.66 3.34 -1.32 2.68 -2 2 C-1.34 1.34 -0.68 0.68 0 0 Z " fill="#A3BE86" transform="translate(76,15)"/>
<path d="M0 0 C2 3 2 3 1.625 5.1875 C1.41875 5.785625 1.2125 6.38375 1 7 C0.67 6.34 0.34 5.68 0 5 C-0.99 5.495 -0.99 5.495 -2 6 C-2.33 4.35 -2.66 2.7 -3 1 C-2.01 0.67 -1.02 0.34 0 0 Z " fill="#9BB755" transform="translate(115,26)"/>
<path d="M0 0 C0.33 0 0.66 0 1 0 C1 1.98 1 3.96 1 6 C0.01 6 -0.98 6 -2 6 C-2.66 4.35 -3.32 2.7 -4 1 C-3.34 1 -2.68 1 -2 1 C-2 1.66 -2 2.32 -2 3 C-1.34 3 -0.68 3 0 3 C0 2.01 0 1.02 0 0 Z " fill="#9BBB67" transform="translate(56,16)"/>
</svg>
