<?xml version="1.0" encoding="UTF-8"?>
<svg xmlns="http://www.w3.org/2000/svg" xmlns:xlink="http://www.w3.org/1999/xlink" id="br" width="1.75em" height="1.75em" viewBox="0 0 4800 4800">
<defs>
<clipPath id="clip-0">
<path clip-rule="nonzero" d="M 331 1153 L 4469 1153 L 4469 3647 L 331 3647 Z M 331 1153 "/>
</clipPath>
<clipPath id="clip-1">
<path clip-rule="evenodd" d="M 1510.300781 1416.738281 C 1473.28125 1416.738281 1400.089844 1444.300781 1400.828125 1441.160156 C 1411.628906 1395.160156 1372.199219 1328.121094 1321.390625 1311.261719 C 1230.429688 1281.070312 1168.289062 1409.488281 1118.351562 1450 C 1038.300781 1514.941406 929.886719 1549.289062 846.722656 1613.050781 C 723.09375 1707.820312 646.472656 1881.699219 481.363281 1923.558594 C 432.960938 1935.828125 331.851562 1932.191406 331.851562 1995.339844 C 331.851562 2001.890625 332.851562 2008.609375 334.113281 2015.058594 C 368.757812 2192.109375 494.8125 2249.429688 687.410156 2249.429688 C 721.683594 2249.429688 755.917969 2243.761719 790.183594 2248.96875 C 857.367188 2259.191406 905.601562 2318.640625 968.84375 2329.460938 C 1013.871094 2337.171875 1058.75 2316.898438 1105.789062 2321.671875 C 1162.28125 2327.390625 1215.589844 2361.398438 1273.140625 2362.941406 C 1330.390625 2364.480469 1364.589844 2338.460938 1424.660156 2352.171875 C 1493.148438 2367.789062 1686.839844 2472.03125 1737.75 2517.050781 C 1779.078125 2553.578125 1815.351562 2606.449219 1861.890625 2636.53125 C 1909.160156 2667.078125 1976 2676.398438 2012.398438 2720.691406 C 2014.570312 2723.320312 1949.808594 3228.039062 1938.621094 3270.371094 C 1931.398438 3297.660156 1907.238281 3317.328125 1886.800781 3338.308594 C 1800.851562 3426.558594 1654.238281 3368.488281 1607.710938 3467.699219 C 1605.101562 3473.269531 1609.308594 3510.171875 1610.46875 3508.839844 C 1628.171875 3488.570312 1638.960938 3479.75 1658.988281 3470.378906 C 1673 3463.828125 1701.738281 3469.601562 1717.648438 3463.238281 C 1720.089844 3462.269531 1724.941406 3457.828125 1724.941406 3460.261719 C 1724.941406 3463.789062 1664.128906 3517.589844 1678.699219 3530.898438 C 1683.621094 3535.378906 1702.820312 3506.96875 1711.910156 3502.851562 C 1718.359375 3499.921875 1733.230469 3505.179688 1733.230469 3506.128906 C 1733.230469 3507.710938 1742.21875 3518.460938 1744.640625 3528.171875 C 1747.609375 3540.011719 1744.53125 3552 1746.878906 3551.019531 C 1765.121094 3543.460938 1754.96875 3530.320312 1779.769531 3527.800781 C 1796.070312 3526.148438 1832.050781 3544.089844 1844.800781 3546.03125 C 1858.941406 3548.179688 1878.488281 3535.03125 1889.78125 3538.460938 C 1900.128906 3541.609375 1905.28125 3550.558594 1918.421875 3552.679688 C 1959.71875 3559.328125 1984.28125 3528.980469 2021.949219 3525.851562 C 2106.078125 3518.871094 2139.160156 3560.371094 2222.21875 3504.980469 C 2387 3395.089844 2379.558594 3095.859375 2464.699219 3123.609375 C 2511.261719 3138.789062 2513.449219 3209.171875 2521.238281 3246.761719 C 2545.621094 3364.378906 2479.511719 3515.761719 2325.5 3515.761719 C 2289.671875 3515.761719 2268.03125 3526.230469 2251.621094 3554.519531 C 2245.671875 3564.769531 2223.578125 3586.390625 2236.289062 3586.390625 C 2237.851562 3586.390625 2345.871094 3516 2327.511719 3541.898438 C 2324.398438 3546.289062 2309.128906 3559.820312 2302.339844 3571.921875 C 2288.929688 3595.828125 2288.851562 3621.519531 2302.128906 3602.898438 C 2313.75 3586.601562 2337.691406 3569.691406 2352.921875 3566.960938 C 2363.679688 3565.03125 2370.140625 3584.101562 2368.910156 3592.589844 C 2366.941406 3606.148438 2374.519531 3624.230469 2374.859375 3623.75 C 2387.660156 3605.109375 2388.289062 3606.109375 2403.640625 3594.648438 C 2413.628906 3587.191406 2423.429688 3579.570312 2433.039062 3571.71875 C 2433.609375 3571.261719 2449.121094 3560.539062 2449.121094 3561.171875 C 2449.121094 3573.691406 2418.488281 3599.800781 2411.429688 3611.390625 C 2404.789062 3622.289062 2422.171875 3619.78125 2433.039062 3623.078125 C 2457.71875 3630.589844 2484.058594 3627.839844 2506.578125 3636.578125 C 2548.238281 3652.738281 2586.371094 3648.898438 2629.75 3625.660156 C 2643.558594 3618.269531 2667.039062 3626.871094 2683.058594 3624.921875 C 2748.359375 3616.96875 2814.199219 3615.191406 2874.289062 3587.769531 C 3175.359375 3450.378906 2942.921875 2820.710938 3193.910156 2849.339844 C 3337.261719 2865.691406 3588.160156 3063.679688 3595.960938 3205.941406 C 3599.539062 3271.238281 3444.03125 3271.269531 3403.03125 3331.71875 C 3401.320312 3334.230469 3391.980469 3379.601562 3394.320312 3376.789062 C 3414.730469 3352.320312 3411.480469 3353.339844 3441.210938 3336.78125 C 3454.980469 3329.101562 3475.199219 3329.089844 3482.628906 3329.089844 C 3486.511719 3329.089844 3485.339844 3328.75 3482.378906 3330.46875 C 3468.511719 3338.519531 3440.019531 3363.960938 3442.660156 3383.5 C 3443.058594 3386.519531 3446.660156 3385.820312 3455.941406 3378.628906 C 3467.429688 3369.71875 3469.339844 3362.648438 3477.378906 3358.078125 C 3483.558594 3354.550781 3487.019531 3366 3486.230469 3367.339844 C 3478.789062 3379.941406 3478.238281 3391.109375 3463.789062 3396.96875 C 3429.648438 3410.820312 3391.449219 3392.730469 3359 3405.679688 C 3342.011719 3412.46875 3326.660156 3428.980469 3316.558594 3442.691406 C 3313.339844 3447.050781 3308.089844 3462.390625 3309.53125 3463.789062 C 3312 3466.191406 3322.761719 3450.421875 3323.46875 3456.058594 C 3323.929688 3459.730469 3316.589844 3467.441406 3316.460938 3477.359375 C 3316.25 3493.171875 3319.578125 3484.769531 3325.75 3479.378906 C 3352.921875 3455.671875 3395.800781 3437.609375 3423.789062 3450.390625 C 3431.890625 3454.078125 3418.238281 3460.5 3411.269531 3465.769531 C 3397.980469 3475.808594 3345.78125 3509.421875 3360.25 3521.988281 C 3362.628906 3524.050781 3372.328125 3514.328125 3372.410156 3514.261719 C 3390.710938 3498.789062 3397.488281 3493.289062 3422.121094 3487.261719 C 3438.460938 3483.269531 3458.449219 3483.058594 3445.691406 3493.96875 C 3441.738281 3497.359375 3408.75 3538.449219 3416.648438 3545.648438 C 3418.519531 3547.359375 3442.609375 3528.679688 3444.210938 3527.25 C 3453.859375 3518.609375 3457.359375 3516.871094 3463.078125 3514.859375 C 3481.148438 3508.488281 3491.121094 3516.019531 3517.128906 3539.761719 C 3517.230469 3539.851562 3512.941406 3545.96875 3511.609375 3552.121094 C 3510.421875 3557.578125 3512.160156 3563.019531 3512.160156 3564.941406 C 3512.160156 3565.121094 3523.449219 3549.28125 3525.390625 3549.679688 C 3549.601562 3554.71875 3534.210938 3551.519531 3553.5 3561.578125 C 3582.230469 3576.570312 3598.429688 3549.128906 3624.351562 3551.761719 C 3636.769531 3553.019531 3650.101562 3567.191406 3663.050781 3570.570312 C 3678.640625 3574.628906 3733.160156 3557.351562 3734.160156 3557.960938 C 3738.730469 3552.851562 3747.609375 3563.640625 3754.839844 3563.910156 C 3775.808594 3564.691406 3797.359375 3562.660156 3817.890625 3558.960938 C 3901.820312 3543.878906 3990.28125 3539.949219 4063.789062 3495.550781 C 4145.648438 3446.109375 4112.601562 3363.589844 4115.101562 3287.308594 C 4117.070312 3226.839844 4138.101562 3169.710938 4150.25 3110.730469 C 4162.078125 3053.300781 4162.550781 2994.351562 4162.550781 2936.160156 C 4183.628906 2919.449219 4187.480469 2839.949219 4203.578125 2809.578125 C 4232.359375 2755.300781 4286.460938 2713.269531 4326.378906 2665.820312 C 4422.769531 2551.261719 4456.648438 2404.210938 4466.359375 2263.621094 C 4480.289062 2061.71875 4411.75 1929.839844 4299.53125 1759.148438 C 4245.488281 1676.949219 4180.929688 1587.53125 4096.539062 1528.480469 C 3898.28125 1389.761719 3379.269531 1303.910156 3123.828125 1307.609375 C 2977.699219 1309.730469 2826.039062 1352.160156 2680.621094 1336.359375 C 2505.300781 1317.308594 2243.171875 1143.5 2096.710938 1154.050781 C 1895.890625 1168.519531 1772 1393.078125 1615.550781 1421.640625 C 1580.378906 1428.058594 1544.878906 1416.738281 1510.300781 1416.738281 Z M 1510.300781 1416.738281 "/>
</clipPath>
</defs>
<path fill-rule="evenodd" fill="rgb(100%, 100%, 100%)" fill-opacity="1" d="M 1510.300781 1416.738281 C 1473.28125 1416.738281 1400.089844 1444.300781 1400.828125 1441.160156 C 1411.628906 1395.160156 1372.199219 1328.121094 1321.390625 1311.261719 C 1230.429688 1281.070312 1168.289062 1409.488281 1118.351562 1450 C 1038.300781 1514.941406 929.886719 1549.289062 846.722656 1613.050781 C 723.09375 1707.820312 646.472656 1881.699219 481.363281 1923.558594 C 432.960938 1935.828125 331.851562 1932.191406 331.851562 1995.339844 C 331.851562 2001.890625 332.851562 2008.609375 334.113281 2015.058594 C 368.757812 2192.109375 494.8125 2249.429688 687.410156 2249.429688 C 721.683594 2249.429688 755.917969 2243.761719 790.183594 2248.96875 C 857.367188 2259.191406 905.601562 2318.640625 968.84375 2329.460938 C 1013.871094 2337.171875 1058.75 2316.898438 1105.789062 2321.671875 C 1162.28125 2327.390625 1215.589844 2361.398438 1273.140625 2362.941406 C 1330.390625 2364.480469 1364.589844 2338.460938 1424.660156 2352.171875 C 1493.148438 2367.789062 1686.839844 2472.03125 1737.75 2517.050781 C 1779.078125 2553.578125 1815.351562 2606.449219 1861.890625 2636.53125 C 1909.160156 2667.078125 1976 2676.398438 2012.398438 2720.691406 C 2014.570312 2723.320312 1949.808594 3228.039062 1938.621094 3270.371094 C 1931.398438 3297.660156 1907.238281 3317.328125 1886.800781 3338.308594 C 1800.851562 3426.558594 1654.238281 3368.488281 1607.710938 3467.699219 C 1605.101562 3473.269531 1609.308594 3510.171875 1610.46875 3508.839844 C 1628.171875 3488.570312 1638.960938 3479.75 1658.988281 3470.378906 C 1673 3463.828125 1701.738281 3469.601562 1717.648438 3463.238281 C 1720.089844 3462.269531 1724.941406 3457.828125 1724.941406 3460.261719 C 1724.941406 3463.789062 1664.128906 3517.589844 1678.699219 3530.898438 C 1683.621094 3535.378906 1702.820312 3506.96875 1711.910156 3502.851562 C 1718.359375 3499.921875 1733.230469 3505.179688 1733.230469 3506.128906 C 1733.230469 3507.710938 1742.21875 3518.460938 1744.640625 3528.171875 C 1747.609375 3540.011719 1744.53125 3552 1746.878906 3551.019531 C 1765.121094 3543.460938 1754.96875 3530.320312 1779.769531 3527.800781 C 1796.070312 3526.148438 1832.050781 3544.089844 1844.800781 3546.03125 C 1858.941406 3548.179688 1878.488281 3535.03125 1889.78125 3538.460938 C 1900.128906 3541.609375 1905.28125 3550.558594 1918.421875 3552.679688 C 1959.71875 3559.328125 1984.28125 3528.980469 2021.949219 3525.851562 C 2106.078125 3518.871094 2139.160156 3560.371094 2222.21875 3504.980469 C 2387 3395.089844 2379.558594 3095.859375 2464.699219 3123.609375 C 2511.261719 3138.789062 2513.449219 3209.171875 2521.238281 3246.761719 C 2545.621094 3364.378906 2479.511719 3515.761719 2325.5 3515.761719 C 2289.671875 3515.761719 2268.03125 3526.230469 2251.621094 3554.519531 C 2245.671875 3564.769531 2223.578125 3586.390625 2236.289062 3586.390625 C 2237.851562 3586.390625 2345.871094 3516 2327.511719 3541.898438 C 2324.398438 3546.289062 2309.128906 3559.820312 2302.339844 3571.921875 C 2288.929688 3595.828125 2288.851562 3621.519531 2302.128906 3602.898438 C 2313.75 3586.601562 2337.691406 3569.691406 2352.921875 3566.960938 C 2363.679688 3565.03125 2370.140625 3584.101562 2368.910156 3592.589844 C 2366.941406 3606.148438 2374.519531 3624.230469 2374.859375 3623.75 C 2387.660156 3605.109375 2388.289062 3606.109375 2403.640625 3594.648438 C 2413.628906 3587.191406 2423.429688 3579.570312 2433.039062 3571.71875 C 2433.609375 3571.261719 2449.121094 3560.539062 2449.121094 3561.171875 C 2449.121094 3573.691406 2418.488281 3599.800781 2411.429688 3611.390625 C 2404.789062 3622.289062 2422.171875 3619.78125 2433.039062 3623.078125 C 2457.71875 3630.589844 2484.058594 3627.839844 2506.578125 3636.578125 C 2548.238281 3652.738281 2586.371094 3648.898438 2629.75 3625.660156 C 2643.558594 3618.269531 2667.039062 3626.871094 2683.058594 3624.921875 C 2748.359375 3616.96875 2814.199219 3615.191406 2874.289062 3587.769531 C 3175.359375 3450.378906 2942.921875 2820.710938 3193.910156 2849.339844 C 3337.261719 2865.691406 3588.160156 3063.679688 3595.960938 3205.941406 C 3599.539062 3271.238281 3444.03125 3271.269531 3403.03125 3331.71875 C 3401.320312 3334.230469 3391.980469 3379.601562 3394.320312 3376.789062 C 3414.730469 3352.320312 3411.480469 3353.339844 3441.210938 3336.78125 C 3454.980469 3329.101562 3475.199219 3329.089844 3482.628906 3329.089844 C 3486.511719 3329.089844 3485.339844 3328.75 3482.378906 3330.46875 C 3468.511719 3338.519531 3440.019531 3363.960938 3442.660156 3383.5 C 3443.058594 3386.519531 3446.660156 3385.820312 3455.941406 3378.628906 C 3467.429688 3369.71875 3469.339844 3362.648438 3477.378906 3358.078125 C 3483.558594 3354.550781 3487.019531 3366 3486.230469 3367.339844 C 3478.789062 3379.941406 3478.238281 3391.109375 3463.789062 3396.96875 C 3429.648438 3410.820312 3391.449219 3392.730469 3359 3405.679688 C 3342.011719 3412.46875 3326.660156 3428.980469 3316.558594 3442.691406 C 3313.339844 3447.050781 3308.089844 3462.390625 3309.53125 3463.789062 C 3312 3466.191406 3322.761719 3450.421875 3323.46875 3456.058594 C 3323.929688 3459.730469 3316.589844 3467.441406 3316.460938 3477.359375 C 3316.25 3493.171875 3319.578125 3484.769531 3325.75 3479.378906 C 3352.921875 3455.671875 3395.800781 3437.609375 3423.789062 3450.390625 C 3431.890625 3454.078125 3418.238281 3460.5 3411.269531 3465.769531 C 3397.980469 3475.808594 3345.78125 3509.421875 3360.25 3521.988281 C 3362.628906 3524.050781 3372.328125 3514.328125 3372.410156 3514.261719 C 3390.710938 3498.789062 3397.488281 3493.289062 3422.121094 3487.261719 C 3438.460938 3483.269531 3458.449219 3483.058594 3445.691406 3493.96875 C 3441.738281 3497.359375 3408.75 3538.449219 3416.648438 3545.648438 C 3418.519531 3547.359375 3442.609375 3528.679688 3444.210938 3527.25 C 3453.859375 3518.609375 3457.359375 3516.871094 3463.078125 3514.859375 C 3481.148438 3508.488281 3491.121094 3516.019531 3517.128906 3539.761719 C 3517.230469 3539.851562 3512.941406 3545.96875 3511.609375 3552.121094 C 3510.421875 3557.578125 3512.160156 3563.019531 3512.160156 3564.941406 C 3512.160156 3565.121094 3523.449219 3549.28125 3525.390625 3549.679688 C 3549.601562 3554.71875 3534.210938 3551.519531 3553.5 3561.578125 C 3582.230469 3576.570312 3598.429688 3549.128906 3624.351562 3551.761719 C 3636.769531 3553.019531 3650.101562 3567.191406 3663.050781 3570.570312 C 3678.640625 3574.628906 3733.160156 3557.351562 3734.160156 3557.960938 C 3738.730469 3552.851562 3747.609375 3563.640625 3754.839844 3563.910156 C 3775.808594 3564.691406 3797.359375 3562.660156 3817.890625 3558.960938 C 3901.820312 3543.878906 3990.28125 3539.949219 4063.789062 3495.550781 C 4145.648438 3446.109375 4112.601562 3363.589844 4115.101562 3287.308594 C 4117.070312 3226.839844 4138.101562 3169.710938 4150.25 3110.730469 C 4162.078125 3053.300781 4162.550781 2994.351562 4162.550781 2936.160156 C 4183.628906 2919.449219 4187.480469 2839.949219 4203.578125 2809.578125 C 4232.359375 2755.300781 4286.460938 2713.269531 4326.378906 2665.820312 C 4422.769531 2551.261719 4456.648438 2404.210938 4466.359375 2263.621094 C 4480.289062 2061.71875 4411.75 1929.839844 4299.53125 1759.148438 C 4245.488281 1676.949219 4180.929688 1587.53125 4096.539062 1528.480469 C 3898.28125 1389.761719 3379.269531 1303.910156 3123.828125 1307.609375 C 2977.699219 1309.730469 2826.039062 1352.160156 2680.621094 1336.359375 C 2505.300781 1317.308594 2243.171875 1143.5 2096.710938 1154.050781 C 1895.890625 1168.519531 1772 1393.078125 1615.550781 1421.640625 C 1580.378906 1428.058594 1544.878906 1416.738281 1510.300781 1416.738281 "/>
<g clip-path="url(#clip-0)">
<g clip-path="url(#clip-1)">
<path fill-rule="evenodd" fill="rgb(0%, 0%, 0%)" fill-opacity="1" d="M 1411.851562 1456.699219 C 1420.960938 1451.648438 1430.019531 1446.519531 1439.238281 1441.640625 C 1455.078125 1433.25 1471.921875 1424.929688 1489.5 1419.941406 C 1493.910156 1418.679688 1498.378906 1417.570312 1502.929688 1416.859375 C 1517.621094 1414.570312 1535.699219 1418.019531 1549.628906 1419.53125 C 1576.988281 1422.5 1603.261719 1425.351562 1630.140625 1417.941406 C 1689.808594 1401.5 1737.691406 1364.738281 1783.601562 1327.769531 C 1802.359375 1312.671875 1820.808594 1297.25 1839.5 1282.078125 C 1907.671875 1226.738281 1984.5 1167.699219 2078.109375 1155.511719 C 2128.371094 1148.960938 2177.769531 1160.078125 2225.078125 1174.910156 C 2248.25 1182.171875 2277.121094 1192.699219 2299.601562 1201.578125 C 2365.878906 1227.761719 2430.699219 1256.898438 2497 1283.03125 C 2550.851562 1304.261719 2605.878906 1324.421875 2663.929688 1333.660156 C 2714.839844 1341.769531 2767.109375 1340.410156 2818.410156 1336.648438 C 2920.46875 1329.191406 3021.121094 1307.621094 3123.820312 1307.140625 C 3201.390625 1306.769531 3278.699219 1312.179688 3355.679688 1320.578125 C 3442.308594 1330.039062 3528.488281 1343.578125 3613.730469 1360.550781 C 3684.339844 1374.609375 3754.460938 1391.121094 3823.308594 1411.230469 C 3877.328125 1427.019531 3931.019531 1444.761719 3982.308594 1467.019531 C 4027.921875 1486.820312 4073.679688 1509.109375 4112.101562 1539.460938 C 4134.328125 1557.03125 4147.21875 1568 4167.109375 1587.78125 C 4218.890625 1639.28125 4260.808594 1698.671875 4299.488281 1758.75 C 4354.910156 1844.851562 4410.449219 1932.601562 4440.488281 2029.371094 C 4456.851562 2082.050781 4465.570312 2135.96875 4467.75 2190.648438 C 4469.011719 2222.058594 4467.109375 2253.589844 4464.480469 2284.890625 C 4458.339844 2357.839844 4445.460938 2430.238281 4420.171875 2499.789062 C 4398.738281 2558.730469 4368.371094 2616.449219 4326.339844 2665.578125 C 4295.449219 2701.679688 4258.179688 2733.160156 4229.261719 2770.660156 C 4218.011719 2785.25 4206.808594 2800.539062 4199.851562 2817.328125 C 4191.871094 2836.589844 4189.179688 2857.808594 4184.890625 2877.78125 C 4182.421875 2889.328125 4179.378906 2902.148438 4175.550781 2913.398438 C 4172.960938 2921.011719 4169.480469 2930.429688 4162.511719 2935.960938 C 4162.511719 2994.050781 4163.140625 3053.339844 4150.210938 3110.558594 C 4137.039062 3168.871094 4116.160156 3227.109375 4115.058594 3287.171875 C 4114.878906 3296.78125 4115.089844 3306.390625 4115.5 3315.988281 C 4115.898438 3325.660156 4116.921875 3335.289062 4117.5 3344.941406 C 4120.148438 3388.808594 4124.421875 3440.289062 4089.359375 3475.429688 C 4078.101562 3486.710938 4064.398438 3495.941406 4049.800781 3503.308594 C 4034.980469 3510.789062 4025.679688 3514.988281 4009.898438 3520.601562 C 3968.609375 3535.300781 3924.789062 3541.910156 3881.351562 3548.839844 C 3860.191406 3552.21875 3839.058594 3555.730469 3817.859375 3558.871094 C 3796.78125 3561.988281 3776.140625 3564.5 3754.808594 3563.808594 C 3750.539062 3563.679688 3746.921875 3560.589844 3743.480469 3558.820312 C 3740.96875 3557.53125 3736.730469 3554.949219 3734.140625 3557.859375 C 3726.921875 3553.46875 3718.089844 3559.878906 3711.789062 3562.558594 C 3702.609375 3566.480469 3699.738281 3566.601562 3688.140625 3568.859375 C 3683.929688 3569.679688 3675.019531 3571.121094 3670.511719 3571.078125 C 3659.550781 3570.96875 3652.449219 3565.570312 3643.480469 3560.28125 C 3637.730469 3556.890625 3631.558594 3552.171875 3624.328125 3551.671875 C 3605.550781 3550.359375 3591.109375 3564.578125 3573.019531 3565.910156 C 3564.671875 3566.519531 3557.769531 3563.839844 3550.761719 3560 C 3548.558594 3558.800781 3546.421875 3557.480469 3544.351562 3556.089844 C 3543.25 3555.359375 3542.488281 3554.191406 3541.261719 3553.660156 C 3538.359375 3552.398438 3529.140625 3549.828125 3525.371094 3549.589844 C 3524.761719 3549.550781 3524.230469 3550.011719 3523.769531 3550.371094 C 3520.039062 3553.261719 3517.859375 3557.679688 3515.511719 3561.46875 C 3515.078125 3562.160156 3514.691406 3562.890625 3514.109375 3563.46875 C 3513.550781 3564.03125 3512.421875 3565.558594 3512.140625 3564.851562 C 3510.488281 3560.671875 3510.988281 3553.988281 3512.28125 3549.640625 C 3512.910156 3547.539062 3513.839844 3545.519531 3514.878906 3543.570312 C 3515.199219 3542.980469 3518.050781 3540.871094 3517.109375 3539.660156 C 3512.691406 3533.980469 3505.929688 3529.238281 3500.230469 3524.859375 C 3490.5 3517.378906 3481.101562 3510.621094 3467.621094 3513.328125 C 3465.339844 3513.789062 3463.121094 3514.5 3461 3515.371094 C 3453.761719 3518.328125 3450.75 3522.058594 3444.191406 3527.148438 C 3439.671875 3530.648438 3435.148438 3534.160156 3430.511719 3537.53125 C 3427.589844 3539.648438 3424.558594 3541.648438 3421.5 3543.601562 C 3421.320312 3543.710938 3418.050781 3546.230469 3416.648438 3545.359375 C 3413.558594 3543.441406 3416.300781 3537.140625 3417.28125 3534.921875 C 3423.558594 3520.660156 3433.339844 3508.320312 3443.828125 3496.410156 C 3445.019531 3495.058594 3452.859375 3488.738281 3448.128906 3485.890625 C 3444.78125 3483.878906 3437.941406 3484.539062 3434.46875 3484.988281 C 3415.828125 3487.410156 3399.128906 3493.359375 3384.410156 3504.261719 C 3380.21875 3507.359375 3376.339844 3510.789062 3372.390625 3514.160156 C 3370.378906 3515.871094 3361.679688 3526.691406 3358.28125 3519.289062 C 3355.378906 3513.011719 3362.269531 3505.480469 3366.511719 3501.21875 C 3380.140625 3487.539062 3395.171875 3477.050781 3411.25 3465.660156 C 3415.191406 3462.859375 3419.300781 3460.261719 3423.160156 3457.371094 C 3424.070312 3456.691406 3427.730469 3453.5 3425.839844 3451.78125 C 3422.070312 3448.339844 3414.191406 3446.988281 3409.53125 3446.429688 C 3388.960938 3443.960938 3367.949219 3451.910156 3350.859375 3461.539062 C 3345.910156 3464.320312 3341.191406 3467.449219 3336.589844 3470.691406 C 3332.808594 3473.371094 3329.230469 3476.289062 3325.730469 3479.269531 C 3324.878906 3479.988281 3320.679688 3485.761719 3318.691406 3486.371094 C 3317.429688 3486.761719 3316.621094 3485.210938 3316.339844 3484.511719 C 3315.601562 3482.71875 3316.289062 3478.371094 3316.441406 3477.25 C 3317.328125 3470.558594 3319.859375 3465.859375 3322.558594 3459.761719 C 3323.011719 3458.761719 3323.320312 3457.710938 3323.539062 3456.640625 C 3323.621094 3456.230469 3323.558594 3454.890625 3322.75 3454.761719 C 3318.371094 3454.039062 3315.921875 3459.960938 3312.640625 3462.691406 C 3311.820312 3463.371094 3309.648438 3464.679688 3309.511719 3463.679688 C 3309.058594 3460.261719 3310.320312 3457.089844 3311.410156 3453.839844 C 3313.289062 3448.25 3315.019531 3444.589844 3318.660156 3439.519531 C 3329.03125 3425.070312 3344.441406 3410.308594 3362.671875 3404.269531 C 3380.769531 3398.28125 3400.03125 3400.878906 3419.011719 3401.980469 C 3418.828125 3402.011719 3418.640625 3402.039062 3418.410156 3402.070312 C 3419.761719 3402.269531 3421.121094 3402.421875 3422.46875 3402.570312 C 3452.761719 3405.828125 3483.519531 3401.941406 3512.910156 3394.351562 L 3513.070312 3394.308594 C 3532.519531 3388.710938 3551.351562 3381.429688 3569.390625 3372.820312 C 3577.589844 3368.910156 3585.808594 3364.910156 3593.390625 3360.351562 C 3605.980469 3352.761719 3618.121094 3344.460938 3629.648438 3335.601562 L 3629.699219 3335.558594 C 3640.570312 3326.589844 3651.269531 3317.429688 3660.550781 3306.898438 C 3672.21875 3293.648438 3682.710938 3279.648438 3691.730469 3264.851562 C 3712.300781 3231.078125 3725.488281 3191.539062 3722.730469 3152.359375 C 3720.679688 3123.308594 3714 3094.890625 3705.460938 3066.890625 C 3681.328125 2987.648438 3642.160156 2913.160156 3616.539062 2835.210938 C 3600.550781 2786.589844 3588.328125 2732.671875 3598.640625 2681.261719 C 3603.769531 2655.671875 3615.679688 2631.660156 3627.488281 2607.71875 C 3651.359375 2559.328125 3677.03125 2511.660156 3702.101562 2463.710938 L 3703.210938 2461.53125 C 3717.570312 2433.050781 3731.859375 2404.539062 3745.730469 2375.851562 C 3758.128906 2349.191406 3770.351562 2322.410156 3780.871094 2295.179688 C 3789.191406 2273.648438 3797.339844 2252.019531 3801.121094 2229.320312 C 3803.011719 2218.019531 3803.980469 2206.011719 3797.960938 2196.640625 C 3792.5 2188.140625 3781.441406 2184.5 3772.351562 2187.839844 C 3763.398438 2191.128906 3758.699219 2198.75 3754.570312 2206.050781 L 3754.238281 2206.648438 C 3746.671875 2220.019531 3737.238281 2232.550781 3727.46875 2244.789062 C 3726.058594 2246.570312 3724.679688 2248.269531 3724.679688 2248.269531 C 3719.429688 2254.941406 3713.988281 2261.488281 3708.320312 2267.871094 C 3694.71875 2283.191406 3680.109375 2297.859375 3662.769531 2309.371094 C 3652.898438 2315.921875 3641.21875 2322.519531 3628.410156 2322.710938 C 3621.300781 2322.808594 3614.578125 2320.378906 3609.269531 2316.339844 C 3608.609375 2315.839844 3608.539062 2316.398438 3608.539062 2316.398438 C 3610.390625 2318.480469 3612.488281 2320.359375 3614.871094 2321.921875 C 3622.339844 2326.808594 3631.988281 2327.941406 3640.960938 2326.871094 C 3654.558594 2325.238281 3666.75 2319.808594 3678.230469 2313.578125 C 3702.960938 2300.148438 3724.761719 2282.398438 3745.109375 2263.621094 L 3745.5 2263.25 L 3745.351562 2263.570312 C 3739.941406 2274.960938 3734.230469 2286.238281 3728.328125 2297.539062 C 3727.710938 2298.710938 3726.851562 2300.359375 3726.851562 2300.359375 C 3717.429688 2319.050781 3707.640625 2337.550781 3697.671875 2355.988281 L 3697.5 2356.328125 C 3682.53125 2385.019531 3667.140625 2413.558594 3651.710938 2441.960938 L 3651.648438 2442.070312 C 3629.191406 2484.851562 3606.441406 2527.308594 3584.738281 2570.25 C 3567.859375 2603.679688 3550.261719 2637.46875 3543.25 2673.75 C 3535.691406 2712.859375 3538.648438 2752.558594 3546.808594 2791.109375 C 3561.410156 2860.109375 3591.269531 2924.910156 3618.160156 2990.289062 C 3635.46875 3032.378906 3652.300781 3074.820312 3661.480469 3118.808594 C 3665.871094 3139.871094 3668.988281 3161.320312 3665.488281 3182.261719 C 3659.71875 3216.820312 3640.460938 3248.679688 3615.800781 3276.339844 C 3609.011719 3284.769531 3601.699219 3292.839844 3593.949219 3300.570312 C 3588.851562 3305.640625 3583.929688 3310.898438 3578.660156 3315.851562 C 3574.339844 3319.921875 3569.738281 3323.738281 3565.320312 3327.738281 C 3547.191406 3344.078125 3526.988281 3358.71875 3505.140625 3370.730469 C 3503.539062 3371.601562 3502.019531 3372.421875 3502.019531 3372.421875 C 3494.03125 3376.988281 3485.78125 3381.210938 3477.300781 3384.96875 C 3478.890625 3382.179688 3480.160156 3379.21875 3481.589844 3376.328125 C 3483.109375 3373.289062 3485.058594 3370.390625 3486.210938 3367.210938 C 3487.519531 3363.550781 3482.328125 3354.589844 3477.351562 3357.949219 C 3468.871094 3363.671875 3463.570312 3372.019531 3455.910156 3378.511719 C 3453.441406 3380.609375 3449.039062 3383.558594 3445.949219 3384.769531 C 3445.21875 3385.058594 3444.300781 3385.199219 3443.578125 3384.898438 C 3443 3384.660156 3442.671875 3383.960938 3442.640625 3383.378906 C 3442.308594 3377.171875 3443.109375 3373.679688 3445.78125 3367.96875 C 3450.960938 3356.890625 3459.910156 3347 3469.929688 3339.269531 C 3473.960938 3336.160156 3478.121094 3333.199219 3482.359375 3330.328125 C 3482.738281 3330.078125 3484.878906 3329.769531 3485.050781 3329 C 3485.199219 3328.269531 3483.421875 3328.921875 3482.609375 3328.960938 C 3480.050781 3329.058594 3477.488281 3328.941406 3474.941406 3329.078125 C 3465.558594 3329.589844 3461.550781 3330.011719 3452.421875 3332.199219 C 3443.488281 3334.351562 3434.839844 3340.050781 3427.429688 3344.441406 C 3420.488281 3348.550781 3414.339844 3353.140625 3409.03125 3358.960938 C 3405.648438 3362.671875 3396.179688 3374.671875 3394.300781 3376.671875 C 3394.039062 3376.941406 3393.929688 3376 3393.929688 3375.640625 C 3393.96875 3374.140625 3394.191406 3372.640625 3394.441406 3371.160156 C 3395.261719 3366.140625 3396.148438 3361.121094 3397.140625 3356.121094 C 3398.199219 3350.761719 3399.460938 3345.429688 3400.601562 3340.078125 C 3401.101562 3337.71875 3401.640625 3333.75 3403.011719 3331.578125 C 3410.730469 3319.359375 3423.320312 3310.339844 3436.339844 3303.121094 C 3475.589844 3281.371094 3521.820312 3273.371094 3561.03125 3251.730469 C 3579.5 3241.53125 3596.878906 3227.109375 3595.929688 3205.789062 C 3594.949219 3183.738281 3587.679688 3161.769531 3578.480469 3141.550781 C 3564.300781 3110.398438 3543.878906 3081.699219 3521.308594 3055.121094 C 3473.410156 2998.691406 3413.988281 2950.078125 3349.089844 2910.441406 C 3309.820312 2886.449219 3267.671875 2865.789062 3221.949219 2854.261719 C 3205.628906 2850.148438 3188.71875 2847.621094 3171.75 2848.339844 C 3165.140625 2848.621094 3158.640625 2849.640625 3152.25 2851.191406 C 3136.238281 2855.078125 3123.21875 2863.488281 3112.699219 2874.339844 C 3109.699219 2811.230469 3103.800781 2748.230469 3095.53125 2685.488281 C 3084.011719 2598.140625 3067.941406 2511.191406 3045.160156 2425.738281 C 3033.609375 2382.410156 3020.46875 2339.429688 3003.421875 2297.609375 C 2989.851562 2264.339844 2972.390625 2232.511719 2952.300781 2202.140625 C 2915.050781 2145.839844 2869.351562 2094.761719 2826.320312 2041.671875 C 2807.28125 2018.179688 2788.828125 1994.191406 2774.839844 1968.078125 C 2771.398438 1961.671875 2768.089844 1955.378906 2765.640625 1948.859375 C 2758.011719 1928.539062 2763.390625 1906.261719 2767.96875 1885.140625 C 2774.480469 1855.339844 2783.109375 1825.128906 2787.980469 1794.511719 L 2788.019531 1794.21875 C 2789.710938 1782.480469 2790.960938 1770.578125 2791.578125 1758.679688 C 2794.050781 1710.941406 2785.578125 1663 2766.898438 1618.46875 L 2766.78125 1618.191406 C 2761.378906 1605.789062 2755.261719 1593.640625 2748.539062 1581.789062 C 2732.089844 1552.910156 2717.851562 1523.320312 2696.441406 1497.808594 C 2688.539062 1488.410156 2679.800781 1479.738281 2669.96875 1472.140625 C 2668.328125 1470.878906 2666.738281 1469.558594 2664.960938 1468.511719 C 2659.429688 1465.25 2653.390625 1462.53125 2647.691406 1459.359375 C 2644.699219 1457.699219 2641.738281 1456.019531 2639 1453.949219 C 2639 1453.949219 2638.410156 1453.488281 2638.410156 1453.488281 C 2637.75 1452.941406 2638.210938 1453.339844 2637.710938 1452.890625 L 2637.03125 1452.199219 C 2636.789062 1451.921875 2636.941406 1452.121094 2636.71875 1451.820312 L 2636.308594 1451.058594 C 2636.21875 1450.699219 2635.738281 1451.5 2636.359375 1450.480469 C 2636.339844 1450.511719 2636.449219 1450.351562 2636.539062 1450.230469 L 2636.101562 1449.941406 L 2635.890625 1450.171875 C 2634.839844 1451.429688 2636.621094 1453.28125 2638.039062 1454.691406 C 2645.101562 1461.648438 2654.339844 1466.25 2662.121094 1472.289062 C 2662.128906 1472.300781 2662.261719 1472.398438 2662.421875 1472.53125 C 2662.421875 1472.53125 2662.421875 1472.53125 2662.640625 1472.730469 C 2662.550781 1472.660156 2663.199219 1473.25 2663.640625 1473.660156 C 2673.148438 1482.640625 2681.121094 1492.878906 2688.128906 1503.660156 C 2698.300781 1519.289062 2706.121094 1536.191406 2713.328125 1553.199219 C 2723.699219 1577.671875 2734.390625 1601.691406 2741.71875 1626.101562 C 2748.511719 1647.699219 2752.980469 1669.921875 2754.660156 1692.289062 C 2757.738281 1733.148438 2750.539062 1773.871094 2739.289062 1813.351562 C 2733.398438 1834.039062 2726.109375 1854.171875 2720.308594 1875.179688 C 2714.898438 1894.789062 2710.460938 1914.691406 2711.070312 1934.769531 C 2711.53125 1949.839844 2715.679688 1964.710938 2722.078125 1978.671875 C 2742.640625 2023.589844 2775.050781 2063.089844 2806.691406 2102.199219 L 2806.820312 2102.351562 C 2807.871094 2103.621094 2808.921875 2104.890625 2809.960938 2106.148438 C 2848.429688 2152.671875 2887.421875 2199.199219 2917.890625 2249.75 C 2940.390625 2287.089844 2956.480469 2326.601562 2969.820312 2366.988281 C 2997.878906 2451.949219 3016.539062 2539.910156 3030.761719 2628.609375 C 3051.519531 2758.140625 3061.890625 2888.941406 3058.28125 3019.960938 C 3055.601562 3116.960938 3045.53125 3214.148438 3019.429688 3308.21875 C 3017.800781 3314.109375 3015.878906 3319.96875 3014.328125 3325.828125 C 3010.191406 3341.390625 3005.578125 3356.789062 3000.390625 3372.011719 C 3000.039062 3373.03125 2999.558594 3374.460938 2999.558594 3374.460938 C 2994.308594 3391.078125 2988.351562 3407.570312 2981.589844 3423.710938 C 2981.179688 3424.679688 2980.628906 3425.988281 2980.628906 3425.988281 C 2967.261719 3459.640625 2950.300781 3492.128906 2928.03125 3521.621094 C 2915.519531 3538.96875 2901.210938 3555.300781 2885.011719 3569.960938 C 2874.171875 3579.769531 2862.429688 3588.699219 2849.960938 3596.910156 C 2812.078125 3609.589844 2771.980469 3615.671875 2731.878906 3619.929688 C 2715.621094 3621.648438 2699.371094 3623.539062 2683.058594 3624.828125 C 2668.96875 3625.960938 2655.238281 3621.078125 2641.21875 3622.511719 C 2630.878906 3623.570312 2622.839844 3629.488281 2613.710938 3633.390625 C 2600.300781 3639.101562 2594.078125 3640.910156 2579.308594 3644.078125 C 2561.050781 3648 2539.839844 3646.839844 2522.050781 3641.621094 C 2511.261719 3638.460938 2500.390625 3633.460938 2489.058594 3631.761719 C 2477.398438 3630.011719 2465.601562 3629.171875 2453.941406 3627.421875 C 2443.410156 3625.839844 2443.601562 3625.511719 2433.28125 3623.199219 C 2430.25 3622.519531 2427.210938 3621.839844 2424.140625 3621.308594 C 2421.25 3620.808594 2416.140625 3620.730469 2413.140625 3619.300781 C 2406.839844 3616.308594 2411.648438 3610.398438 2414.640625 3607.058594 C 2416.25 3605.269531 2418.03125 3603.601562 2419.828125 3601.960938 C 2421.640625 3600.320312 2423.609375 3598.820312 2425.460938 3597.21875 C 2430.511719 3592.878906 2435.230469 3588.628906 2438.078125 3582.75 C 2438.628906 3581.621094 2439.359375 3579.421875 2439.019531 3578.089844 C 2438.601562 3576.429688 2437.300781 3575.71875 2436.238281 3574.449219 C 2435.460938 3573.511719 2435.089844 3572.109375 2433.921875 3571.601562 C 2433.660156 3571.480469 2433.28125 3571.46875 2433.039062 3571.621094 C 2427.269531 3575.191406 2423.21875 3578.5 2418.03125 3582.71875 C 2413.210938 3586.640625 2408.519531 3590.691406 2403.640625 3594.558594 C 2398.089844 3598.960938 2393.429688 3601.550781 2388.289062 3606.421875 C 2386.191406 3608.410156 2384.308594 3610.589844 2382.589844 3612.859375 C 2380.011719 3616.289062 2378.660156 3621.011719 2374.851562 3623.660156 C 2373.96875 3624.28125 2373.601562 3622.660156 2373.550781 3622.511719 C 2373.238281 3621.558594 2373.109375 3620.570312 2372.761719 3619.640625 C 2371.480469 3616.171875 2369.878906 3612.789062 2368.640625 3609.308594 C 2365.878906 3601.46875 2363.488281 3593.179688 2364.21875 3584.878906 C 2364.371094 3583.160156 2364.890625 3581.46875 2364.941406 3579.738281 C 2364.960938 3579.121094 2364.980469 3578.300781 2364.421875 3577.949219 C 2363.78125 3577.550781 2362.859375 3577.839844 2362.109375 3577.96875 C 2357.300781 3578.800781 2352.46875 3579.578125 2347.769531 3580.808594 C 2330.328125 3585.390625 2317.339844 3594.199219 2302.128906 3602.820312 C 2298.96875 3604.609375 2289.441406 3610.851562 2284.960938 3606.558594 C 2280.851562 3602.628906 2281.699219 3596.910156 2282.398438 3592.011719 C 2283.761719 3582.429688 2288.160156 3573.589844 2292.539062 3564.921875 C 2293.488281 3563.019531 2295.96875 3558.820312 2297.660156 3556.859375 C 2300.960938 3553.011719 2305.199219 3552 2310.320312 3549.46875 C 2311.199219 3549.039062 2312.171875 3548.769531 2313.011719 3548.289062 C 2313.859375 3547.808594 2316.128906 3546.28125 2315.128906 3546.351562 C 2313.730469 3546.449219 2312.589844 3547.46875 2311.339844 3548.058594 C 2303.339844 3551.78125 2295.160156 3555.199219 2287.308594 3559.179688 C 2283.359375 3561.191406 2279.210938 3565.359375 2275.5 3567.640625 C 2269.441406 3571.390625 2261.339844 3572.359375 2254.839844 3575.140625 C 2251.070312 3576.761719 2247.398438 3578.601562 2243.96875 3580.769531 C 2242.511719 3581.699219 2241.570312 3583.179688 2240.320312 3584.339844 C 2239.730469 3584.890625 2239.199219 3585.53125 2238.46875 3585.890625 C 2237.808594 3586.210938 2236.460938 3586.960938 2236.289062 3586.300781 C 2235.808594 3584.398438 2236.691406 3582.410156 2237.101562 3580.5 C 2239.320312 3570.019531 2246.449219 3562.019531 2252.738281 3553.28125 C 2255.851562 3548.960938 2258.730469 3544.5 2261.96875 3540.261719 C 2264.859375 3536.480469 2269.519531 3531.769531 2273.53125 3528.941406 C 2296.410156 3512.800781 2326.371094 3516.71875 2353.339844 3513.929688 C 2382.210938 3510.949219 2410.808594 3499.679688 2434.128906 3484.089844 C 2437.480469 3481.851562 2440.730469 3479.519531 2443.878906 3477.109375 C 2450.328125 3472.730469 2456.589844 3468.128906 2462.640625 3463.320312 L 2462.820312 3463.160156 C 2469.039062 3457.601562 2475.011719 3451.828125 2480.75 3445.808594 C 2494.128906 3430.511719 2505.929688 3414.160156 2515.871094 3396.851562 C 2528.011719 3375.710938 2537.398438 3353.609375 2544.070312 3330.550781 C 2553.671875 3296.359375 2557.039062 3260.101562 2552.191406 3224.769531 C 2547.058594 3187.421875 2532.058594 3151.738281 2513.988281 3117.800781 C 2494.300781 3080.828125 2470.640625 3045.488281 2442.949219 3013.078125 C 2424.5 2991.488281 2403.488281 2971.789062 2381.148438 2953.640625 C 2321.941406 2905.519531 2253.769531 2868.308594 2192.148438 2823.269531 C 2175.011719 2810.738281 2159.390625 2796.640625 2144.300781 2782.128906 C 2121.789062 2760.46875 2099.28125 2737.851562 2073.03125 2720.039062 C 2027.339844 2689.050781 1972.53125 2674.890625 1926.210938 2647.21875 C 1912.941406 2639.289062 1900.808594 2630.179688 1888.570312 2621.269531 C 1841.371094 2586.910156 1796.589844 2549.398438 1750.761719 2513.21875 L 1749.230469 2512.011719 C 1711.441406 2482.238281 1672.960938 2453.121094 1632.199219 2426.871094 L 1631.800781 2426.621094 C 1607.929688 2411.628906 1583.289062 2397.570312 1557.75 2384.941406 L 1557.210938 2384.691406 C 1531.878906 2372.601562 1505.980469 2361.828125 1479.261719 2353.03125 L 1479.011719 2352.949219 C 1452.878906 2344.789062 1425.769531 2338.789062 1398.238281 2337.351562 C 1373.171875 2336.050781 1348.230469 2338.800781 1323.289062 2341.980469 C 1299.398438 2345.011719 1275.179688 2346.5 1251.179688 2344.78125 C 1238.378906 2343.859375 1226.429688 2340.660156 1214.480469 2336.640625 C 1196.261719 2330.460938 1178.089844 2322.671875 1158.648438 2320.941406 C 1158.171875 2320.890625 1158.269531 2321.378906 1158.269531 2321.378906 L 1158.550781 2321.449219 C 1177.460938 2326 1193.460938 2336.03125 1210.558594 2344.46875 C 1221.761719 2350 1233.441406 2354.808594 1245.730469 2357.308594 C 1257.820312 2359.78125 1269.949219 2361.460938 1282.128906 2362.539062 C 1279.160156 2362.648438 1276.171875 2362.691406 1273.160156 2362.648438 C 1214.269531 2361.789062 1163.839844 2326.460938 1105.808594 2321.359375 C 1059.609375 2317.300781 1015.121094 2334.761719 968.867188 2329.160156 C 950.660156 2326.960938 933.433594 2318.628906 917.8125 2310.371094 C 883.34375 2292.160156 852.554688 2266.921875 814.582031 2254.601562 C 781.734375 2243.949219 747.289062 2247.078125 713.140625 2248.308594 C 688.050781 2249.210938 677.386719 2249.609375 652.113281 2248.429688 C 567.871094 2244.480469 479.28125 2228.441406 416.777344 2172.609375 C 403.910156 2161.109375 392.476562 2148.300781 382.5625 2134.589844 C 369.371094 2116.359375 358.742188 2096.421875 351.378906 2075.621094 C 341.390625 2047.410156 340.578125 2043.871094 334.148438 2014.699219 C 331.230469 2001.460938 330.253906 1986.960938 336.328125 1974.261719 C 349.0625 1947.660156 384.824219 1939.820312 412.820312 1934.640625 C 421.046875 1933.121094 429.34375 1931.96875 437.617188 1930.699219 C 453.671875 1928.230469 465.632812 1926.96875 481.394531 1923.191406 C 511.777344 1915.890625 540.015625 1903.351562 565.828125 1887.101562 C 641.835938 1839.269531 694.71875 1769.398438 751.960938 1704.769531 C 774.695312 1679.089844 798.253906 1654.410156 824.085938 1631.28125 C 904.726562 1559.058594 1015.441406 1525.058594 1103.050781 1461.390625 C 1146.039062 1430.140625 1172.738281 1385.269531 1209.578125 1348.671875 C 1226.738281 1331.621094 1248.558594 1315.730469 1273.171875 1308.910156 C 1281.46875 1306.609375 1287.941406 1306.140625 1296.570312 1306.269531 C 1302.070312 1306.359375 1308.929688 1307.351562 1314.230469 1308.648438 C 1335.488281 1313.859375 1351.019531 1327.390625 1362.910156 1343.550781 C 1366.230469 1349.140625 1370.101562 1354.46875 1373.359375 1360.089844 C 1378.640625 1369.210938 1381.769531 1380.070312 1384.351562 1391.019531 C 1384.988281 1393.710938 1385.648438 1396.941406 1385.648438 1396.941406 C 1385.941406 1398.179688 1386.21875 1399.429688 1386.488281 1400.691406 C 1387.109375 1403.601562 1387.75 1407.140625 1387.75 1407.140625 C 1389.890625 1417.339844 1391.238281 1427.398438 1391.808594 1437.601562 C 1392.679688 1449.679688 1392.328125 1461.890625 1390.761719 1473.710938 C 1389.269531 1486.339844 1386.269531 1498.78125 1381.980469 1510.921875 C 1374.839844 1531.121094 1362.820312 1550.878906 1346.710938 1567.589844 C 1338.621094 1575.980469 1329.488281 1583.230469 1319.398438 1589.539062 C 1307.808594 1596.789062 1295.21875 1602.519531 1282.089844 1606.699219 C 1296.449219 1604.320312 1310.550781 1600.320312 1323.421875 1594.421875 C 1335.171875 1589.03125 1346.171875 1582.328125 1355.671875 1574.558594 C 1365.371094 1566.609375 1373.929688 1557.730469 1381.128906 1547.691406 C 1388.398438 1537.558594 1394.46875 1526.570312 1399.148438 1515.128906 C 1404.269531 1502.628906 1407.691406 1489.839844 1409.859375 1476.820312 C 1409.910156 1476.53125 1409.960938 1476.238281 1410 1475.941406 C 1410.949219 1469.558594 1411.558594 1463.140625 1411.851562 1456.699219 Z M 2010.238281 2743.691406 C 2024 2750.75 2037.230469 2758.570312 2049.359375 2767.839844 C 2084.78125 2794.921875 2112.929688 2829.46875 2148.398438 2856.421875 C 2174.621094 2876.339844 2202.558594 2894.511719 2230.359375 2912.550781 C 2291.179688 2951.988281 2353.121094 2990.949219 2398.421875 3043.871094 C 2418.621094 3067.460938 2436.488281 3092.828125 2452.039062 3119.28125 C 2432.421875 3119.808594 2420.109375 3139.480469 2412.949219 3153.859375 C 2409.371094 3161.03125 2405.980469 3168.28125 2402.898438 3175.640625 C 2399.359375 3184.109375 2396.148438 3192.691406 2393.101562 3201.320312 C 2386.058594 3221.261719 2379.519531 3241.351562 2372.660156 3261.339844 C 2368.898438 3272.289062 2365.191406 3283.261719 2361.230469 3294.148438 C 2357.140625 3305.421875 2352.929688 3316.660156 2348.480469 3327.808594 C 2320.320312 3398.441406 2279.921875 3473.429688 2207.210938 3514.171875 C 2188.109375 3524.871094 2167.121094 3532.671875 2144.539062 3533.988281 C 2121.839844 3535.308594 2099.328125 3529.910156 2077.058594 3527.328125 C 2059.230469 3525.28125 2040 3523.550781 2021.960938 3525.75 C 1996.269531 3528.878906 1975.511719 3543.960938 1951.058594 3550.5 C 1941.539062 3553.039062 1935.929688 3553.648438 1925.980469 3553.410156 C 1920.78125 3553.289062 1914.5 3552.210938 1909.871094 3549.910156 C 1903.160156 3546.578125 1897.308594 3540.5 1889.789062 3538.359375 C 1886.898438 3537.550781 1882.859375 3537.660156 1879.980469 3538.398438 C 1874.570312 3539.789062 1854.75 3548.078125 1844.808594 3545.929688 C 1839.839844 3544.859375 1835.011719 3543.269531 1830.21875 3541.660156 C 1825.390625 3540.050781 1820.738281 3538.011719 1815.96875 3536.269531 C 1803.140625 3531.570312 1789.078125 3526.019531 1774.839844 3527.898438 C 1771.460938 3528.351562 1766.5 3529.421875 1763.808594 3531.660156 C 1760.140625 3534.699219 1758.980469 3538.171875 1756.320312 3541.738281 C 1753.21875 3545.898438 1748.628906 3551.230469 1744.660156 3554.730469 C 1744.191406 3555.148438 1744.21875 3553.578125 1744.28125 3552.988281 C 1744.5 3550.828125 1744.871094 3548.679688 1745.058594 3546.511719 C 1745.320312 3543.511719 1745.710938 3540.5 1745.640625 3537.480469 C 1745.511719 3531.398438 1745.210938 3524.898438 1739.980469 3520.519531 C 1737.609375 3518.53125 1734.859375 3516.941406 1732.410156 3515.039062 C 1731.199219 3514.089844 1730.289062 3512.839844 1729.019531 3511.96875 C 1726.359375 3510.128906 1722.890625 3508.058594 1719.460938 3507.351562 C 1710.300781 3505.480469 1689.488281 3515.628906 1686.789062 3516.53125 C 1681.988281 3518.140625 1677.128906 3519.621094 1672.261719 3521.070312 C 1671.101562 3521.410156 1667.96875 3522.449219 1666.808594 3521.058594 C 1663.550781 3517.171875 1666.988281 3511.261719 1667.371094 3506.371094 C 1667.609375 3503.398438 1667.839844 3499.890625 1669.101562 3496.980469 C 1670.789062 3493.101562 1674.730469 3489.078125 1677.519531 3486.441406 C 1678.820312 3485.199219 1680.191406 3484.019531 1681.609375 3482.878906 C 1689.949219 3479 1697.46875 3473.621094 1705.359375 3469.089844 C 1709.820312 3467.109375 1714.351562 3465.25 1718.878906 3463.398438 C 1719.800781 3463.03125 1724.75 3462.019531 1724.949219 3460.148438 C 1725.039062 3459.320312 1723 3459.929688 1722.21875 3460.371094 C 1720.671875 3461.238281 1719.261719 3462.320312 1717.660156 3463.128906 C 1714.269531 3464.871094 1710.628906 3466.171875 1707.300781 3468 C 1706.648438 3468.359375 1706 3468.71875 1705.359375 3469.089844 C 1704.988281 3469.261719 1704.621094 3469.421875 1704.25 3469.589844 C 1696.269531 3473.199219 1688.359375 3477.480469 1681.609375 3482.878906 C 1679.03125 3484.089844 1676.359375 3485.148438 1673.589844 3486 C 1661.898438 3489.570312 1649.488281 3490.230469 1637.730469 3493.511719 C 1633.808594 3494.601562 1629.949219 3495.871094 1626.261719 3497.480469 C 1623.28125 3498.789062 1620.398438 3500.339844 1617.808594 3502.199219 C 1615.71875 3503.691406 1614.769531 3506.261719 1612.671875 3507.75 C 1610.808594 3509.058594 1609.398438 3509.179688 1609.238281 3506.960938 C 1609.160156 3505.859375 1609.300781 3504.75 1609.199219 3503.648438 C 1608.769531 3499.140625 1608.03125 3494.648438 1607.640625 3490.128906 C 1607.261719 3485.628906 1605.429688 3473.371094 1607.730469 3467.589844 C 1609.609375 3462.851562 1614.589844 3454.949219 1617.578125 3450.75 C 1642.71875 3415.5 1690.511719 3406.441406 1732.480469 3398.769531 C 1745.960938 3396.308594 1759.539062 3394.308594 1773 3391.75 C 1803.921875 3385.871094 1835.511719 3376.789062 1861.171875 3359.398438 C 1876.871094 3348.761719 1889.398438 3335.75 1902.511719 3322.550781 C 1915.25 3309.730469 1927.980469 3296.371094 1935.160156 3280.121094 C 1941.460938 3265.898438 1942.851562 3249.46875 1945.101562 3234.558594 C 1948.488281 3211.988281 1952.03125 3189.429688 1955.179688 3166.828125 C 1963.839844 3104.730469 1972.328125 3042.609375 1980.53125 2980.449219 C 1988.390625 2920.828125 1995.878906 2861.171875 2003.371094 2801.511719 C 2005.78125 2782.25 2007.828125 2762.949219 2010.238281 2743.691406 Z M 3788.769531 2215.960938 C 3788.769531 2215.960938 3788.898438 2215.828125 3788.628906 2216.058594 C 3788.628906 2216.058594 3788 2216.550781 3787.570312 2216.96875 C 3787.570312 2216.96875 3789.078125 2215.828125 3788.78125 2216.019531 C 3788.78125 2216.019531 3788.960938 2215.820312 3788.769531 2215.960938 Z M 478.824219 1924.78125 C 482.046875 1928.820312 483.738281 1933.710938 485.085938 1938.621094 C 487.644531 1947.949219 488.589844 1957.800781 488.183594 1967.390625 C 487.914062 1973.261719 486.960938 1979.050781 484.921875 1984.691406 L 484.859375 1984.859375 C 477.703125 2000.378906 463.859375 2013.230469 450.082031 2023.511719 C 436.015625 2034 420.300781 2042.480469 403.128906 2048.640625 C 392.855469 2052.328125 382.082031 2054.511719 371.226562 2055.710938 C 364.179688 2056.480469 357.175781 2056.601562 350.152344 2056.070312 L 349.597656 2056.03125 C 366.785156 2054.578125 383.207031 2049.121094 398.316406 2041.640625 C 415.617188 2033.761719 431.496094 2023.21875 445.21875 2010.429688 C 450.375 2005.628906 455.253906 2000.539062 459.566406 1995.140625 C 461.984375 1992.109375 464.273438 1989.019531 466.339844 1985.800781 C 467.6875 1983.691406 469.125 1981.570312 470.21875 1979.300781 C 470.21875 1979.300781 472.476562 1975.25 473.976562 1971.800781 C 474.441406 1970.730469 474.878906 1969.640625 475.285156 1968.550781 C 476.886719 1964.261719 478.140625 1959.851562 479.058594 1955.390625 C 480.980469 1946.019531 481.902344 1936.050781 479.148438 1927.21875 C 479.148438 1927.21875 478.933594 1926.570312 478.933594 1926.558594 C 478.804688 1926.199219 478.863281 1926.359375 478.699219 1925.929688 C 478.695312 1925.921875 478.453125 1925.328125 478.453125 1925.328125 C 478.375 1925.148438 478.292969 1924.96875 478.210938 1924.789062 C 478.210938 1924.789062 478.546875 1924.429688 478.824219 1924.78125 "/>
</g>
</g>
</svg>
