<?xml version="1.0" encoding="UTF-8"?>
<svg xmlns="http://www.w3.org/2000/svg" xmlns:xlink="http://www.w3.org/1999/xlink" id="church" width="1.75em" height="1.75em" viewBox="0 0 2000 2000">

<path fill-rule="evenodd" fill="rgb(95.701599%, 96.875%, 98.046875%)" fill-opacity="1" d="M 1908.238281 1915.15625 L 1889.179688 1915.15625 C 1888.300781 1915.15625 1887.589844 1915.871094 1887.589844 1916.746094 L 1887.589844 1935.800781 C 1887.589844 1936.679688 1888.300781 1937.394531 1889.179688 1937.394531 L 1908.238281 1937.394531 C 1909.109375 1937.394531 1909.828125 1936.679688 1909.828125 1935.800781 L 1909.828125 1916.746094 C 1909.828125 1915.871094 1909.109375 1915.15625 1908.238281 1915.15625 "/>
<path fill-rule="evenodd" fill="rgb(95.701599%, 96.875%, 98.046875%)" fill-opacity="1" d="M 1865.28125 1916.171875 L 1847.089844 1916.171875 C 1846.261719 1916.171875 1845.578125 1916.855469 1845.578125 1917.691406 L 1845.578125 1935.875 C 1845.578125 1936.710938 1846.261719 1937.394531 1847.089844 1937.394531 L 1865.28125 1937.394531 C 1866.109375 1937.394531 1866.800781 1936.710938 1866.800781 1935.875 L 1866.800781 1917.691406 C 1866.800781 1916.855469 1866.109375 1916.171875 1865.28125 1916.171875 "/>
<path fill-rule="evenodd" fill="rgb(95.701599%, 96.875%, 98.046875%)" fill-opacity="1" d="M 1822.320312 1917.1875 L 1805.011719 1917.1875 C 1804.210938 1917.1875 1803.558594 1917.839844 1803.558594 1918.636719 L 1803.558594 1935.949219 C 1803.558594 1936.742188 1804.210938 1937.394531 1805.011719 1937.394531 L 1822.320312 1937.394531 C 1823.121094 1937.394531 1823.769531 1936.742188 1823.769531 1935.949219 L 1823.769531 1918.636719 C 1823.769531 1917.839844 1823.121094 1917.1875 1822.320312 1917.1875 "/>
<path fill-rule="evenodd" fill="rgb(95.701599%, 96.875%, 98.046875%)" fill-opacity="1" d="M 1779.371094 1918.207031 L 1762.929688 1918.207031 C 1762.171875 1918.207031 1761.550781 1918.824219 1761.550781 1919.582031 L 1761.550781 1936.019531 C 1761.550781 1936.777344 1762.171875 1937.394531 1762.929688 1937.394531 L 1779.371094 1937.394531 C 1780.121094 1937.394531 1780.738281 1936.777344 1780.738281 1936.019531 L 1780.738281 1919.582031 C 1780.738281 1918.824219 1780.121094 1918.207031 1779.371094 1918.207031 "/>
<path fill-rule="evenodd" fill="rgb(95.701599%, 96.875%, 98.046875%)" fill-opacity="1" d="M 1736.410156 1919.222656 L 1720.839844 1919.222656 C 1720.128906 1919.222656 1719.539062 1919.808594 1719.539062 1920.523438 L 1719.539062 1936.09375 C 1719.539062 1936.808594 1720.128906 1937.394531 1720.839844 1937.394531 L 1736.410156 1937.394531 C 1737.128906 1937.394531 1737.710938 1936.808594 1737.710938 1936.09375 L 1737.710938 1920.523438 C 1737.710938 1919.808594 1737.128906 1919.222656 1736.410156 1919.222656 "/>
<path fill-rule="evenodd" fill="rgb(95.701599%, 96.875%, 98.046875%)" fill-opacity="1" d="M 1693.460938 1920.238281 L 1678.761719 1920.238281 C 1678.078125 1920.238281 1677.53125 1920.792969 1677.53125 1921.46875 L 1677.53125 1936.167969 C 1677.53125 1936.84375 1678.078125 1937.394531 1678.761719 1937.394531 L 1693.460938 1937.394531 C 1694.128906 1937.394531 1694.679688 1936.84375 1694.679688 1936.167969 L 1694.679688 1921.46875 C 1694.679688 1920.792969 1694.128906 1920.238281 1693.460938 1920.238281 "/>
<path fill-rule="evenodd" fill="rgb(95.701599%, 96.875%, 98.046875%)" fill-opacity="1" d="M 1650.5 1921.257812 L 1636.671875 1921.257812 C 1636.039062 1921.257812 1635.519531 1921.777344 1635.519531 1922.414062 L 1635.519531 1936.238281 C 1635.519531 1936.875 1636.039062 1937.394531 1636.671875 1937.394531 L 1650.5 1937.394531 C 1651.140625 1937.394531 1651.648438 1936.875 1651.648438 1936.238281 L 1651.648438 1922.414062 C 1651.648438 1921.777344 1651.140625 1921.257812 1650.5 1921.257812 "/>
<path fill-rule="evenodd" fill="rgb(95.701599%, 96.875%, 98.046875%)" fill-opacity="1" d="M 1607.539062 1922.273438 L 1594.589844 1922.273438 C 1593.988281 1922.273438 1593.511719 1922.761719 1593.511719 1923.355469 L 1593.511719 1936.3125 C 1593.511719 1936.90625 1593.988281 1937.394531 1594.589844 1937.394531 L 1607.539062 1937.394531 C 1608.140625 1937.394531 1608.628906 1936.90625 1608.628906 1936.3125 L 1608.628906 1923.355469 C 1608.628906 1922.761719 1608.140625 1922.273438 1607.539062 1922.273438 "/>
<path fill-rule="evenodd" fill="rgb(95.701599%, 96.875%, 98.046875%)" fill-opacity="1" d="M 1564.589844 1923.292969 L 1552.5 1923.292969 C 1551.949219 1923.292969 1551.488281 1923.746094 1551.488281 1924.300781 L 1551.488281 1936.386719 C 1551.488281 1936.941406 1551.949219 1937.394531 1552.5 1937.394531 L 1564.589844 1937.394531 C 1565.140625 1937.394531 1565.601562 1936.941406 1565.601562 1936.386719 L 1565.601562 1924.300781 C 1565.601562 1923.746094 1565.140625 1923.292969 1564.589844 1923.292969 "/>
<path fill-rule="nonzero" fill="rgb(0%, 0%, 0%)" fill-opacity="1" d="M 1396.488281 1628.675781 C 1435.339844 1606.53125 1472.109375 1581.195312 1506.441406 1553.03125 C 1507.328125 1552.164062 1508.28125 1551.394531 1509.28125 1550.726562 C 1519.800781 1542.496094 1531.78125 1537.320312 1544.109375 1535.097656 L 1544.109375 1262.019531 L 1396.488281 1124.570312 L 1396.488281 1628.675781 "/>
<path fill-rule="nonzero" fill="rgb(0%, 0%, 0%)" fill-opacity="1" d="M 604.960938 1124.570312 L 457.339844 1262.019531 L 457.339844 1522.53125 C 470.394531 1525.148438 482.984375 1531.085938 493.796875 1540.441406 C 528.296875 1570.214844 565.484375 1597.082031 604.960938 1620.648438 L 604.960938 1124.570312 "/>
<path fill-rule="nonzero" fill="rgb(0%, 0%, 0%)" fill-opacity="1" d="M 1178.019531 1712.761719 L 1178.019531 1351.179688 C 1178.019531 1253.707031 1098.199219 1173.882812 1000.71875 1173.882812 C 903.25 1173.882812 823.425781 1253.707031 823.425781 1351.179688 L 823.425781 1709.609375 C 939.070312 1737.125 1061.878906 1738.195312 1178.019531 1712.761719 "/>
<path fill-rule="nonzero" fill="rgb(0%, 0%, 0%)" fill-opacity="1" d="M 783.421875 1698.957031 L 783.421875 1351.179688 C 783.421875 1231.625 881.167969 1133.878906 1000.71875 1133.878906 C 1120.28125 1133.878906 1218.03125 1231.625 1218.03125 1351.179688 L 1218.03125 1702.890625 C 1265.929688 1689.707031 1312.140625 1671.980469 1356.488281 1649.976562 L 1356.488281 863.859375 C 1344.308594 860.78125 1332.660156 854.808594 1322.578125 845.890625 L 1000.71875 560.710938 L 678.867188 845.890625 C 668.789062 854.808594 657.136719 860.78125 644.960938 863.859375 L 644.960938 1642.984375 C 689.199219 1666.03125 735.4375 1684.796875 783.421875 1698.957031 Z M 1000.71875 703.929688 C 1063.519531 703.929688 1114.441406 754.851562 1114.441406 817.648438 C 1114.441406 880.449219 1063.519531 931.371094 1000.71875 931.371094 C 937.921875 931.371094 887.007812 880.449219 887.007812 817.648438 C 887.007812 754.851562 937.921875 703.929688 1000.71875 703.929688 "/>
<path fill-rule="nonzero" fill="rgb(0%, 0%, 0%)" fill-opacity="1" d="M 799.652344 1744.847656 C 798.78125 1744.679688 797.929688 1744.457031 797.097656 1744.179688 C 770.769531 1737.28125 744.925781 1729.097656 719.640625 1719.703125 C 627.300781 1685.386719 542.234375 1635.003906 467.703125 1570.597656 C 451.132812 1556.277344 425.878906 1558.070312 411.53125 1574.652344 C 397.195312 1591.21875 398.988281 1616.480469 415.589844 1630.824219 C 620.753906 1808.113281 895.078125 1884.15625 1162.871094 1837.589844 C 1318.171875 1810.582031 1462.371094 1744.015625 1583.589844 1644.230469 C 1600.648438 1630.1875 1602.929688 1604.984375 1589.050781 1588.214844 C 1575 1571.238281 1549.808594 1568.851562 1533.03125 1582.753906 C 1459.890625 1643.195312 1376.179688 1690.828125 1286.691406 1722.925781 C 1196.980469 1755.09375 1103.480469 1771.058594 1007.558594 1771.058594 C 936.808594 1771.058594 867.027344 1762.269531 799.652344 1744.847656 "/>
<path fill-rule="nonzero" fill="rgb(0%, 0%, 0%)" fill-opacity="1" d="M 1052.851562 765.519531 C 1024.070312 736.730469 977.382812 736.730469 948.597656 765.519531 C 919.808594 794.308594 919.808594 840.988281 948.597656 869.769531 C 977.382812 898.558594 1024.070312 898.558594 1052.851562 869.769531 C 1081.640625 840.988281 1081.640625 794.308594 1052.851562 765.519531 "/>
<path fill-rule="nonzero" fill="rgb(0%, 0%, 0%)" fill-opacity="1" d="M 978.304688 417.140625 C 976.21875 418.71875 975.621094 418.851562 973.105469 421.109375 L 973.074219 421.078125 L 972.949219 421.191406 L 597.460938 753.890625 C 588.898438 761.460938 584.21875 771.800781 583.574219 782.398438 C 582.921875 793.039062 586.304688 803.910156 593.878906 812.46875 C 609.039062 829.601562 635.425781 831.128906 652.460938 816.050781 L 987.425781 519.25 C 994.855469 512.578125 1006.269531 512.390625 1013.929688 519.171875 L 1348.988281 816.050781 C 1366.019531 831.128906 1392.410156 829.601562 1407.570312 812.46875 C 1415.140625 803.910156 1418.53125 793.039062 1417.878906 782.398438 C 1417.230469 771.800781 1412.550781 761.460938 1403.988281 753.890625 L 1028.21875 420.949219 C 1013.949219 408.628906 993.976562 407 978.304688 417.140625 "/>
<path fill-rule="nonzero" fill="rgb(0%, 0%, 0%)" fill-opacity="1" d="M 986.207031 371.988281 C 996.777344 370.078125 1007.628906 370.261719 1018.140625 372.550781 L 1018.140625 320.699219 C 1018.140625 309.648438 1027.089844 300.699219 1038.140625 300.699219 L 1131.179688 300.699219 L 1131.179688 268.761719 L 1038.140625 268.761719 C 1027.089844 268.761719 1018.140625 259.808594 1018.140625 248.761719 L 1018.140625 155.730469 L 986.207031 155.730469 L 986.207031 248.761719 C 986.207031 259.808594 977.253906 268.761719 966.207031 268.761719 L 873.171875 268.761719 L 873.171875 300.699219 L 966.207031 300.699219 C 977.253906 300.699219 986.207031 309.648438 986.207031 320.699219 L 986.207031 371.988281 "/>
</svg>
