<?xml version="1.0" encoding="UTF-8"?>
<!DOCTYPE svg PUBLIC "-//W3C//DTD SVG 1.1//EN" "http://www.w3.org/Graphics/SVG/1.1/DTD/svg11.dtd">
<!-- Creator: CorelDRAW -->
<svg xmlns="http://www.w3.org/2000/svg" xml:space="preserve" id="deer" width="2.2em" height="2.2em" style="shape-rendering:geometricPrecision; text-rendering:geometricPrecision; image-rendering:optimizeQuality; fill-rule:evenodd; clip-rule:evenodd"
viewBox="0 0 2048 2048"
 xmlns:xlink="http://www.w3.org/1999/xlink">
 <defs>
  <style type="text/css">
   <![CDATA[
    .fil2 {fill:none}
    .fil0 {fill:#000000}
    .fil1 {fill:#000000;fill-rule:nonzero}
   ]]>
  </style>
 </defs>
 <g id="Layer_x0020_1">
  <metadata id="CorelCorpID_0Corel-Layer"/>
  <g id="_290580008">
   <path id="_290581712" class="fil0" d="M1368.64 1085.17c48.078,-285.923 -176.633,-346.218 -353.044,-346.218 -176.408,0 -376.003,108.846 -336.229,346.218 56.3611,336.363 184.18,308.342 184.18,585.326 0,108.018 74.4107,105.63 156.543,105.63 82.1327,0 164.368,2.4189 164.368,-105.63 0,-303.525 136.102,-299.404 184.181,-585.326zm-494.353 83.2241c-24.8315,9.51969 -54.0248,4.27323 -74.0422,-15.7453 -20.0197,-20.0173 -25.265,-49.2118 -15.7453,-74.0422 24.8315,-9.51969 54.0248,-4.27441 74.0422,15.7441 20.0197,20.0185 25.265,49.2118 15.7453,74.0434zm299.433 0c24.8315,9.51969 54.0237,4.27323 74.0422,-15.7453 20.0185,-20.0173 25.265,-49.2118 15.7453,-74.0422 -24.8315,-9.51969 -54.0248,-4.27441 -74.0422,15.7441 -20.0197,20.0185 -25.265,49.2118 -15.7453,74.0434zm-185.192 399.311l72.4253 0c59.4355,0 26.4992,60.5989 14.8394,83.8867 -6.23504,12.4524 -13.8614,24.3567 -30.7937,24.3567l-40.5154 0c-16.9323,0 -24.5587,-11.9043 -30.7937,-24.3567 -11.6599,-23.2878 -44.5961,-83.8867 14.8382,-83.8867z"/>
   <path id="_290581472" class="fil1" d="M806.584 766.523c3.42402,17.1874 20.1366,28.3465 37.324,24.9236 17.1886,-3.42402 28.3477,-20.1366 24.9236,-37.324l-31.7445 -158.719 -31.1244 6.20079 31.128 -6.22678c-2.00197,-10.0134 -8.51457,-17.974 -16.9984,-22.1988l-156.566 -93.9414 0.0507874 -0.0850394c-6.79489,-4.07717 -14.5028,-5.31496 -21.7429,-4.05827l-142.284 15.9602 -93.0249 -121.708 -25.1717 19.2201 25.2213 -19.2768c-1.60158,-2.09646 -3.41575,-3.93544 -5.38465,-5.51457l-92.1757 -83.6516c-12.9425,-11.7791 -32.9847,-10.8343 -44.7638,2.10827 -11.778,12.9437 -10.8343,32.9859 2.10945,44.7638l91.6383 83.1662 100.752 131.818c6.36024,9.65906 17.791,15.4831 30.0709,14.1059l-0.00590552 -0.056693 151.384 -16.9807 137.373 82.4245 29.0114 145.05z"/>
   <path id="_290581904" class="fil1" d="M771.582 573.328c-5.47796,16.6406 3.57166,34.5744 20.2122,40.0524 16.6417,5.47914 34.5744,-3.57166 40.0536,-20.2122l59.3953 -179.242c5.47796,-16.6417 -3.57166,-34.5744 -20.2122,-40.0536 -16.6406,-5.47796 -34.5744,3.57166 -40.0524,20.2122l-59.3965 179.243z"/>
   <path id="_290580896" class="fil1" d="M597.86 502.152c5.20512,16.7091 22.9701,26.0362 39.6792,20.8323 16.7091,-5.20512 26.0362,-22.9701 20.8323,-39.6792l-53.3209 -169.88c-5.20394,-16.7091 -22.9701,-26.0362 -39.6792,-20.8323 -16.7091,5.20512 -26.0362,22.9713 -20.8323,39.6792l53.3209 169.88z"/>
   <path id="_290580704" class="fil1" d="M475.967 534.195c14.7225,-9.3815 19.0536,-28.924 9.67205,-43.6477 -9.3815,-14.7225 -28.9252,-19.0536 -43.6477,-9.67205l-114.374 73.1634c-14.7225,9.3815 -19.0536,28.9252 -9.67205,43.6477 9.3815,14.7236 28.9252,19.0536 43.6477,9.67205l114.374 -73.1634z"/>
   <path id="_290581016" class="fil1" d="M372.18 390.676c-1.57441,17.3953 11.25,32.7744 28.6441,34.3488 17.3941,1.57441 32.7733,-11.25 34.3488,-28.6453l7.43977 -80.5997c1.57441,-17.3941 -11.25,-32.7733 -28.6453,-34.3477 -17.3941,-1.57441 -32.7733,11.25 -34.3477,28.6441l-7.43977 80.5997z"/>
   <path id="_290581256" class="fil1" d="M1179.17 754.123c-3.42402,17.1874 7.73505,33.9 24.9236,37.324 17.1874,3.42284 33.9,-7.73623 37.324,-24.9236l29.0114 -145.05 137.373 -82.4245 151.384 16.9807 -0.00590552 0.056693c12.2799,1.37717 23.7106,-4.44685 30.0709,-14.1059l100.752 -131.818 91.6383 -83.1662c12.9437,-11.778 13.8874,-31.8201 2.10945,-44.7638 -11.7791,-12.9425 -31.8213,-13.8874 -44.7638,-2.10827l-92.1757 83.6516c-1.9689,1.57914 -3.78307,3.41811 -5.38465,5.51457l25.2213 19.2768 -25.1717 -19.2201 -93.0249 121.708 -142.284 -15.9602c-7.24016,-1.25669 -14.948,-0.0188977 -21.7429,4.05827l0.0507874 0.0850394 -156.566 93.9414c-8.48386,4.22481 -14.9965,12.1854 -16.9984,22.1988l31.128 6.22678 -31.1244 -6.20079 -31.7445 158.719z"/>
   <path id="_290581328" class="fil1" d="M1216.15 593.168c5.47914,16.6406 23.4118,25.6914 40.0536,20.2122 16.6406,-5.47796 25.6902,-23.4118 20.2122,-40.0524l-59.3965 -179.243c-5.47796,-16.6406 -23.4118,-25.6902 -40.0524,-20.2122 -16.6406,5.47914 -25.6902,23.4118 -20.2122,40.0536l59.3953 179.242z"/>
   <path id="_290581184" class="fil1" d="M1389.63 483.305c-5.20394,16.7091 4.12323,34.474 20.8323,39.6792 16.7091,5.20394 34.474,-4.12323 39.6792,-20.8323l53.3209 -169.88c5.20394,-16.7079 -4.12323,-34.474 -20.8323,-39.6792 -16.7091,-5.20394 -34.4752,4.12323 -39.6792,20.8323l-53.3209 169.88z"/>
   <path id="_290581160" class="fil1" d="M1606.01 480.876c-14.7225,-9.3815 -34.2662,-5.0504 -43.6477,9.67205 -9.3815,14.7236 -5.0504,34.2662 9.67205,43.6477l114.374 73.1634c14.7225,9.3815 34.2662,5.05158 43.6477,-9.67205 9.3815,-14.7225 5.0504,-34.2662 -9.67205,-43.6477l-114.374 -73.1634z"/>
   <path id="_290580824" class="fil1" d="M1612.83 396.379c1.57559,17.3953 16.9547,30.2197 34.3488,28.6453 17.3941,-1.57441 30.2185,-16.9536 28.6441,-34.3488l-7.43977 -80.5997c-1.57441,-17.3941 -16.9536,-30.2185 -34.3477,-28.6441 -17.3953,1.57441 -30.2197,16.9536 -28.6453,34.3477l7.43977 80.5997z"/>
   <g>
    <path id="_290581304" class="fil0" d="M552.866 809.754c-55.3099,-36.0284 -114.406,-61.6193 -160.817,-66.9697 -2.89607,18.7335 10.5602,57.6296 31.8756,96.6095 23.478,42.9319 56.3823,85.0064 87.6698,99.7879 1.46221,0.690945 2.99646,1.34528 4.59449,1.95827 31.7658,12.1795 62.3209,16.7977 91.3276,15.1406 28.1516,-1.60866 54.9284,-9.12284 80.0068,-21.3614 -31.0193,-45.4571 -80.9221,-90.1631 -134.658,-125.165z"/>
    <path id="_290581064" class="fil0" d="M584.356 763.201c-34.0075,-13.4528 -90.4749,-30.5587 -134.602,-35.289 -17.7165,-1.9004 -33.1453,-1.94291 -43.5343,0.95315 46.6666,8.30197 102.797,33.4429 155.265,67.6205 56.3138,36.6839 108.684,83.9351 140.813,132.069 5.81457,-15.4772 13.0075,-29.9681 21.3898,-43.4882 -0.947245,-0.608268 -1.77874,-1.42795 -2.4189,-2.44252 -13.4244,-21.3248 -36.4677,-48.7028 -64.1729,-72.841 -22.2402,-19.376 -47.3788,-36.5492 -72.7406,-46.5815z"/>
   </g>
   <g>
    <path id="_290580032" class="fil0" d="M1512.26 809.754c55.3099,-36.0284 114.406,-61.6193 160.817,-66.9697 2.89607,18.7335 -10.5602,57.6296 -31.8756,96.6095 -23.478,42.9319 -56.3823,85.0064 -87.6698,99.7879 -1.46221,0.690945 -2.99646,1.34528 -4.59449,1.95827 -31.7658,12.1795 -62.3209,16.7977 -91.3276,15.1406 -28.1516,-1.60866 -54.9284,-9.12284 -80.0068,-21.3614 31.0193,-45.4571 80.9221,-90.1631 134.658,-125.165z"/>
    <path id="_290580104" class="fil0" d="M1480.77 763.201c34.0075,-13.4528 90.4749,-30.5587 134.602,-35.289 17.7165,-1.9004 33.1453,-1.94291 43.5343,0.95315 -46.6666,8.30197 -102.797,33.4429 -155.265,67.6205 -56.3138,36.6839 -108.684,83.9351 -140.813,132.069 -5.81457,-15.4772 -13.0075,-29.9681 -21.3898,-43.4882 0.947245,-0.608268 1.77874,-1.42795 2.4189,-2.44252 13.4244,-21.3248 36.4677,-48.7028 64.1729,-72.841 22.2402,-19.376 47.3788,-36.5492 72.7406,-46.5815z"/>
   </g>
  </g>
 </g>
 <rect class="fil2" width="2048" height="2048"/>
</svg>
