<?xml version="1.0" encoding="UTF-8"?>
<svg xmlns="http://www.w3.org/2000/svg" xmlns:xlink="http://www.w3.org/1999/xlink" id="mc" width="1.75em" height="1.75em" viewBox="0 0 3750 1875">

<path fill-rule="nonzero" fill="rgb(0%, 0%, 0%)" fill-opacity="1" d="M 928.910156 973.863281 C 928.910156 973.863281 743.09375 880.957031 726.304688 823.871094 C 709.515625 766.78125 1094.570312 328.03125 1127.808594 305.871094 C 1161.058594 283.710938 1252.871094 483.171875 1221.210938 525.910156 C 1221.210938 525.910156 1325.691406 548.078125 1352.601562 527.5 L 1268.699219 467.339844 C 1268.699219 467.339844 1176.890625 320.121094 1244.960938 191.898438 C 1313.03125 63.671875 1536.230469 112.75 1567.890625 128.578125 L 1558.390625 191.898438 C 1558.390625 191.898438 1588.46875 120.660156 1635.960938 90.578125 C 1635.960938 90.578125 1832.261719 147.570312 1924.070312 212.480469 C 1924.070312 212.480469 2288.171875 234.640625 2289.75 535.410156 L 2365.738281 530.660156 C 2365.738281 530.660156 2392.648438 461.011719 2432.21875 440.429688 C 2471.800781 419.851562 2865.96875 372.359375 2943.539062 399.269531 C 2943.539062 399.269531 2889.71875 595.570312 2853.308594 628.808594 L 2867.648438 697.378906 L 2643.78125 813.800781 L 2592.289062 892.152344 C 2592.289062 892.152344 2970.449219 872.601562 2998.949219 1249.355469 C 3027.441406 1626.113281 2546.199219 1816.078125 2334.070312 1569.125 C 2334.070312 1569.125 2277.089844 1508.96875 2267.589844 1472.5625 L 2182.601562 1454.074219 C 2182.601562 1454.074219 2171.398438 1496.609375 2088.570312 1516.757812 C 2005.738281 1536.90625 1428.140625 1568.246094 1390.089844 1568.246094 C 1352.03125 1568.246094 1249.050781 1548.097656 1240.089844 1523.472656 C 1231.140625 1498.847656 1246.808594 1418.253906 1246.808594 1418.253906 L 1197.558594 1400.34375 C 1197.558594 1400.34375 1184.128906 1604.066406 1007.269531 1695.855469 C 830.40625 1787.644531 635.636719 1733.914062 555.042969 1590.636719 C 474.445312 1447.355469 512.503906 1219.007812 637.875 1129.457031 L 606.53125 1118.261719 C 606.53125 1118.261719 729.664062 983.941406 909.878906 1013.042969 Z M 928.910156 973.863281 "/>
<path fill-rule="nonzero" fill="rgb(0%, 0%, 0%)" fill-opacity="1" d="M 187.5 1784.417969 L 3252.230469 1683.101562 L 3562.5 1309.511719 L 3014.871094 1610.125 L 3100.261719 1503.632812 Z M 187.5 1784.417969 "/>
<path fill-rule="nonzero" fill="rgb(0%, 0%, 0%)" fill-opacity="1" d="M 2859.640625 1043.5625 L 3429.53125 1024.566406 L 2846.980469 1113.214844 Z M 2859.640625 1043.5625 "/>
<path fill-rule="nonzero" fill="rgb(0%, 0%, 0%)" fill-opacity="1" d="M 2549.371094 413.519531 L 3264.890625 419.851562 L 2467.050781 470.511719 Z M 2549.371094 413.519531 "/>
<path fill-rule="nonzero" fill="rgb(0%, 0%, 0%)" fill-opacity="1" d="M 1661.289062 130.160156 L 1973.148438 126.988281 L 1664.460938 158.648438 Z M 1661.289062 130.160156 "/>
</svg>
