<?xml version="1.0" encoding="UTF-8"?>
<svg xmlns="http://www.w3.org/2000/svg" xmlns:xlink="http://www.w3.org/1999/xlink" id="mntn" width="1.75em" height="1.75em" viewBox="0 0 3323 2531">
<path fill-rule="nonzero" fill="rgb(0%, 0%, 0%)" fill-opacity="1" d="M 0 2521.992188 C 0 2495.070312 314.085938 1969.765625 587.695312 1539.085938 C 689.5625 1378.738281 852.773438 1117.261719 950.386719 958.03125 C 1048 798.789062 1152.28125 638.128906 1182.121094 601 C 1232.078125 538.839844 1240.738281 534.121094 1291.28125 541.53125 C 1321.46875 545.949219 1390.480469 567.519531 1444.640625 589.46875 C 1503.070312 613.148438 1548.910156 623.96875 1557.398438 616.089844 C 1565.269531 608.78125 1608.660156 512.96875 1653.828125 403.160156 C 1751.941406 164.671875 1824.070312 16.519531 1848.800781 2.710938 C 1858.738281 -2.828125 1892.949219 0.390625 1924.820312 9.890625 C 1974.621094 24.730469 1989.539062 40.839844 2031.03125 124.5 C 2057.570312 178.03125 2356.25 722.960938 2694.75 1335.460938 C 3033.25 1947.957031 3314.25 2465.574219 3319.191406 2485.722656 C 3327.980469 2521.566406 3325.980469 2522.414062 3226.410156 2525.039062 C 3170.429688 2526.511719 3116.890625 2521.910156 3107.410156 2514.8125 C 3097.941406 2507.714844 2940.980469 2231.214844 2758.628906 1900.367188 C 2576.269531 1569.519531 2422.21875 1298.828125 2416.308594 1298.828125 C 2410.398438 1298.828125 2401.878906 1313.660156 2397.378906 1331.800781 C 2218.339844 2053.855469 2109.519531 2483.984375 2100.609375 2504.816406 C 2093.601562 2521.199219 2076.230469 2529.546875 2054.859375 2526.792969 C 2011.078125 2521.152344 1948.589844 2408.859375 1778.339844 2029.90625 C 1607.5 1649.632812 1508.210938 1445.359375 1494.210938 1445.359375 C 1481.910156 1445.359375 1436.488281 1541.160156 1185.078125 2097.417969 C 965.222656 2583.859375 1000.371094 2531.78125 895.378906 2526.671875 L 806.703125 2522.359375 L 694.035156 2229.296875 C 632.066406 2068.113281 575.234375 1930.453125 567.746094 1923.382812 C 560.214844 1916.277344 517.40625 1975.238281 471.996094 2055.261719 C 389.378906 2200.855469 245.648438 2435.429688 201.507812 2496.714844 C 181.652344 2524.28125 163.199219 2529.683594 88.882812 2529.683594 C 39.996094 2529.683594 0 2526.222656 0 2521.992188 Z M 1092.871094 1256.75 C 1177.621094 1109.46875 1209.371094 1005.769531 1169.710938 1005.769531 C 1152.800781 1005.769531 999.5625 1270.46875 964.449219 1360.328125 C 939.628906 1423.851562 947.136719 1456.691406 980.722656 1431.519531 C 991.921875 1423.121094 1042.390625 1344.480469 1092.871094 1256.75 Z M 1931.121094 1192.589844 C 1931.109375 1150.289062 1923.320312 991.371094 1913.820312 839.449219 C 1904.320312 687.53125 1901.019531 559.199219 1906.480469 554.269531 C 1911.929688 549.339844 1930.339844 553.171875 1947.371094 562.769531 C 1964.398438 572.371094 1981.679688 575.351562 1985.761719 569.390625 C 1996.75 553.320312 1909.769531 356.980469 1888.890625 350.730469 C 1878.898438 347.738281 1829.660156 437.101562 1777.609375 552.679688 L 1684.25 760 L 1777.789062 974.460938 C 1829.230469 1092.421875 1879.078125 1207.070312 1888.570312 1229.230469 C 1915.089844 1291.191406 1931.160156 1277.359375 1931.121094 1192.589844 Z M 1931.121094 1192.589844 "/>
</svg>
