<?xml version="1.0" encoding="utf-8"?>
<svg viewBox="1069.5345458984375 550.5770263671875 260 260" id="lake" width="1.75em" height="1.75em" xmlns="http://www.w3.org/2000/svg"><path class="st7" d="M1191,577.4c-71.7,0-130,58.3-130,130s58.3,130,130,130c71.7,0,130-58.3,130-130S1262.6,577.4,1191,577.4z&#10;&#9;&#9; M1269.1,772.5c-24.3,0-33.2-23.2-33.5-24.2l-15.9-0.4c-0.4,0.9-9.2,21.4-28.7,21.4c-18,0-25.4-20.1-25.7-20.9l-16.2,0.5&#10;&#9;&#9;c-0.2,0.8-6.2,20.4-24.3,20.4c-9.4,0-17-3.3-22.4-6.8c-9.2-14.8-14.8-32-15.6-50.4c7.8,8.4,18.7,15.2,33.3,15.2&#10;&#9;&#9;c18.7,0,30.9-7.7,38.1-16c7.4,8.6,19.4,16.6,36.3,16c16.4-0.6,27.2-8.3,33.8-16.6c6.5,8.1,17.1,16.7,32.7,16.7c1,0,2,0,3-0.1&#10;&#9;&#9;c13.3-0.9,23.7-7.6,31.4-15.2c-1,22.6-9.2,43.3-22.3,60C1271.7,772.2,1270.4,772.5,1269.1,772.5z M1191,603&#10;&#9;&#9;c50.5,0,92.7,36,102.3,83.7c-5,8.5-15.4,22.5-30.6,23.5c-18.5,1.2-26.8-19.2-27.1-20l-16.3,1.1c-0.2,0.7-4.4,18.1-25.6,18.9&#10;&#9;&#9;c-20.4,0.7-27.6-17.7-27.9-18.4l-16.2,0.7c-0.5,1.8-5.9,17.7-29.6,17.7c-16.4,0-26.2-15.2-30.9-25.3&#10;&#9;&#9;C1099.4,638.1,1141.1,603,1191,603z M1122.7,786.2c0.7,0,1.4,0.1,2.1,0.1c15.5,0,26.2-8.3,32.9-17.3c6.5,8.5,17.2,17.3,33.3,17.3&#10;&#9;&#9;c17.5,0,29.2-9.7,36.2-18.5c5.8,7.9,15.4,16.9,29.8,20.3c-18,14.8-41,23.6-66.1,23.6C1164.9,811.8,1141,802.1,1122.7,786.2z" style="fill: black; opacity: 1;" transform="matrix(1, 0, 0, 1, 8.53458023071289, -26.82297706604004)"/></svg>